<svg width="106" height="82" viewBox="0 0 106 82" fill="none" xmlns="http://www.w3.org/2000/svg">
<path fill-rule="evenodd" clip-rule="evenodd" d="M26.7322 15.0786C12.371 23.3704 0.573248 30.196 0.514578 30.2467C0.456231 30.2975 0.666089 30.7519 0.981036 31.2563C1.29631 31.7608 1.57998 32.2164 1.61158 32.2685C1.64349 32.3206 4.40709 30.7826 7.75353 28.851C16.6107 23.7384 34.4737 13.4222 44.2145 7.79379C48.8653 5.1065 52.8319 2.90784 53.0289 2.90784C53.32 2.90784 97.2985 28.1241 102.734 31.4077C103.579 31.918 104.337 32.3354 104.418 32.3354C104.617 32.3354 105.625 30.3625 105.493 30.2335C105.244 29.9903 53.1988 -0.00226353 53.0305 1.2813e-07C52.9277 0.00129365 41.0934 6.78678 26.7322 15.0786ZM41.2849 25.1237C40.6876 25.2816 40.6737 26.0706 41.2421 27.5436C41.3955 27.9417 41.1637 28.234 40.3781 28.6324C37.8556 29.9124 36.5304 32.0373 36.4821 34.8792C36.4556 36.4446 36.3067 36.8647 35.425 37.864C33.8526 39.6461 33.2249 41.6268 33.41 44.2213C33.4957 45.4236 33.8129 46.8872 34.115 47.4732C34.9254 49.0452 36.8586 50.8519 38.6732 51.7334C40.8788 52.8048 44.7603 52.8355 46.8898 51.7984C50.5402 50.0205 52.3651 47.3057 52.3529 43.6712C52.3458 41.5175 51.6166 39.2978 50.5157 38.0774C50.1296 37.6492 50.0158 36.9595 50.0725 35.3911C50.2018 31.8116 48.452 29.2695 45.1965 28.3081C43.9928 27.9527 43.7507 27.7205 43.2916 26.48C42.7668 25.0626 42.4158 24.8256 41.2849 25.1237ZM23.5441 25.5069C23.4835 25.6166 23.0338 26.9431 22.5448 28.4549C22.0557 29.9667 21.5648 31.2977 21.4539 31.4128C21.343 31.5276 20.3817 31.4429 19.3179 31.224C16.2339 30.5895 14.2298 31.3213 13.2234 33.4488C10.9894 38.1718 12.8517 45.9899 16.9308 49.0135C17.9489 49.7679 18.2042 49.8122 20.4462 49.6234C21.8356 49.5066 23.517 49.5703 24.3996 49.7731C25.6004 50.0493 26.1633 50.0305 26.9785 49.688C28.3898 49.0956 30.3311 46.8704 31.363 44.6627C32.1328 43.0157 32.2124 42.4818 32.2124 38.9647C32.2124 35.4257 32.1415 34.9571 31.4065 33.6416C29.9752 31.0791 27.3724 30.0601 24.7823 31.0481C24.084 31.3142 23.9519 31.2906 24.0918 30.9242C24.7159 29.2931 25.5766 26.0852 25.447 25.8746C25.2455 25.5474 23.6882 25.2466 23.5441 25.5069ZM78.3091 28.0581C78.1927 29.2546 78.0728 30.4492 78.0425 30.7127C78.0016 31.071 78.5057 31.2508 80.0408 31.4251C81.1701 31.5532 82.1752 31.7395 82.2745 31.8387C82.6104 32.1757 81.6868 37.8248 80.8738 40.407C80.2397 42.4207 79.7301 43.344 78.5116 44.6886C75.7518 47.7326 75.4946 49.1402 77.3556 51.0071C77.9832 51.6367 78.6376 52.4161 78.8101 52.7394C79.1614 53.3979 80.975 53.9974 82.6246 54C87.9645 54.009 92.0669 47.9431 91.5956 40.7346C91.3989 37.7236 90.5202 35.7387 88.597 33.9604C87.8149 33.2374 87.175 32.557 87.175 32.4486C87.175 32.3406 88.0377 32.3497 89.0921 32.4693L91.0089 32.687L91.1945 31.6221C91.2967 31.0361 91.4134 29.8302 91.4537 28.9419L91.5269 27.3273L87.0138 26.8115C84.5317 26.5279 81.6053 26.2029 80.5108 26.0894L78.5209 25.883L78.3091 28.0581ZM85.0797 28.6133C87.2073 28.8707 89.0566 29.0861 89.1898 29.0916C89.3229 29.0971 89.4316 29.4069 89.4316 29.7801C89.4316 30.4172 89.3158 30.4453 87.5428 30.2386L85.6544 30.0187L85.4475 31.0558C84.9743 33.4294 85.1683 34.0574 86.6518 34.9597C89.1466 36.477 90.2581 40.2169 89.4457 44.36C88.4264 49.5561 85.0526 52.7107 81.3796 51.9016C80.8409 51.7829 80.4054 51.477 80.4054 51.217C80.4054 50.9586 81.4683 49.6945 82.7677 48.4081C85.727 45.4776 86.3827 43.9797 86.1141 40.764C86.0094 39.5113 85.5519 37.5913 85.07 36.3835C84.3166 34.4947 84.2393 33.9666 84.4324 32.0373L84.6522 29.8415L82.5108 29.6692C80.1598 29.4797 79.9119 29.3688 80.1943 28.6305C80.4238 28.0303 80.2675 28.0309 85.0797 28.6133ZM45.6852 30.9349C47.0078 31.613 47.8443 33.1963 47.8456 35.0247C47.8463 35.881 47.688 36.8796 47.4939 37.2434C47.1941 37.8057 47.3118 38.0809 48.2808 39.0815C49.6911 40.538 50.1051 41.6022 50.0983 43.7556C50.0809 49.1923 43.3825 52.2764 38.5948 49.0519C36.593 47.7038 35.6094 45.9523 35.6023 43.7243C35.5956 41.4975 36.1626 40.2091 37.8037 38.7238L39.1415 37.5128L38.7647 36.0996C38.4246 34.8232 38.4636 34.5338 39.1686 33.1067C39.7647 31.8999 40.2914 31.3537 41.3997 30.7923C42.939 30.0126 43.9525 30.0466 45.6852 30.9349ZM61.8864 30.5882C57.4159 32.0192 54.5598 35.8519 54.5598 40.42C54.5598 43.1166 55.297 44.946 57.2344 47.0541C57.9965 47.8836 59.3514 48.9488 60.2449 49.4212C61.673 50.176 62.2404 50.2798 64.9321 50.2798C67.6238 50.2798 68.1912 50.176 69.6192 49.4212C71.6011 48.3735 73.7922 46.0523 74.6626 44.0787C76.0826 40.8581 75.2628 36.4805 72.6891 33.54C70.3039 30.8146 65.3814 29.4697 61.8864 30.5882ZM68.608 33.139C71.5321 34.5584 73.1604 37.1755 73.1375 40.42C73.0869 47.5644 64.3982 50.9757 59.0193 45.9627C57.0378 44.1155 56.0891 40.7042 56.8837 38.2818C57.7476 35.6478 59.8836 33.4007 62.2352 32.6524C63.6923 32.1883 67.2018 32.4564 68.608 33.139ZM27.9911 33.3505C29.3469 33.9701 29.9384 35.6773 29.9478 38.9974C29.9552 41.7335 29.8766 42.0951 28.8276 44.143C28.207 45.3547 27.3057 46.6376 26.8248 46.9943C26.0269 47.5857 25.7977 47.6084 24.2088 47.2517C23.1534 47.0147 21.6483 46.9448 20.3891 47.0742C18.335 47.2853 18.3012 47.2756 17.4292 46.236C14.3713 42.5902 13.6292 35.381 16.142 33.7295C16.8557 33.2606 17.2061 33.2396 18.805 33.5708C21.1441 34.0555 23.4741 34.0206 25.1204 33.4763C26.797 32.9221 27.0311 32.9117 27.9911 33.3505ZM64.18 34.8148C64.0617 34.9332 63.965 35.3697 63.965 35.7849C63.965 36.4317 64.1262 36.5394 65.0933 36.5394C66.1319 36.5394 66.2215 36.4624 66.2215 35.5692C66.2215 34.7197 66.1081 34.5991 65.3083 34.5991C64.8057 34.5991 64.298 34.6961 64.18 34.8148ZM84.1735 40.831C84.3228 42.282 84.2209 42.9126 83.6445 44.1068C82.9012 45.6474 78.9277 49.5959 78.431 49.288C77.8156 48.9064 78.2127 47.9276 79.4761 46.7107C80.9441 45.2969 82.8135 41.7455 83.1539 39.7231C83.4459 37.9897 83.9359 38.5224 84.1735 40.831Z" fill="black"/>
<path d="M20.7456 76.714H35.8476V78.676H20.7456V76.714ZM21.8976 65.356H34.6056V67.282H21.8976V65.356ZM21.9876 72.268H34.5516V74.176H21.9876V72.268ZM24.1656 67.138H26.5596V72.448H24.1656V67.138ZM29.9436 67.138H32.3376V72.448H29.9436V67.138ZM37.2242 72.466H52.3082V74.356H37.2242V72.466ZM39.0602 64.33H50.4722V68.812H41.4542V70.612H39.0962V67.12H48.1142V66.148H39.0602V64.33ZM39.0962 69.784H50.7962V71.602H39.0962V69.784ZM43.5602 75.13H45.6122V75.4C45.6122 76.072 45.4682 76.696 45.1802 77.272C44.9042 77.848 44.4842 78.364 43.9202 78.82C43.3562 79.264 42.6662 79.63 41.8502 79.918C41.0342 80.218 40.0982 80.428 39.0422 80.548L38.2682 78.73C39.2042 78.646 40.0022 78.496 40.6622 78.28C41.3342 78.064 41.8862 77.806 42.3182 77.506C42.7502 77.206 43.0622 76.876 43.2542 76.516C43.4582 76.144 43.5602 75.772 43.5602 75.4V75.13ZM43.9562 75.13H46.0082V75.4C46.0082 75.772 46.1102 76.144 46.3142 76.516C46.5182 76.876 46.8302 77.206 47.2502 77.506C47.6822 77.806 48.2342 78.064 48.9062 78.28C49.5782 78.496 50.3822 78.646 51.3182 78.73L50.5262 80.548C49.4702 80.428 48.5342 80.218 47.7182 79.918C46.9022 79.63 46.2122 79.264 45.6482 78.82C45.0842 78.364 44.6582 77.848 44.3702 77.272C44.0942 76.696 43.9562 76.072 43.9562 75.4V75.13ZM53.7028 76.714H68.8048V78.676H53.7028V76.714ZM54.8548 65.356H67.5628V67.282H54.8548V65.356ZM54.9448 72.268H67.5088V74.176H54.9448V72.268ZM57.1228 67.138H59.5168V72.448H57.1228V67.138ZM62.9008 67.138H65.2948V72.448H62.9008V67.138ZM70.1814 72.466H85.2654V74.356H70.1814V72.466ZM72.0174 64.33H83.4294V68.812H74.4114V70.612H72.0534V67.12H81.0714V66.148H72.0174V64.33ZM72.0534 69.784H83.7534V71.602H72.0534V69.784ZM76.5174 75.13H78.5694V75.4C78.5694 76.072 78.4254 76.696 78.1374 77.272C77.8614 77.848 77.4414 78.364 76.8774 78.82C76.3134 79.264 75.6234 79.63 74.8074 79.918C73.9914 80.218 73.0554 80.428 71.9994 80.548L71.2254 78.73C72.1614 78.646 72.9594 78.496 73.6194 78.28C74.2914 78.064 74.8434 77.806 75.2754 77.506C75.7074 77.206 76.0194 76.876 76.2114 76.516C76.4154 76.144 76.5174 75.772 76.5174 75.4V75.13ZM76.9134 75.13H78.9654V75.4C78.9654 75.772 79.0674 76.144 79.2714 76.516C79.4754 76.876 79.7874 77.206 80.2074 77.506C80.6394 77.806 81.1914 78.064 81.8634 78.28C82.5354 78.496 83.3394 78.646 84.2754 78.73L83.4834 80.548C82.4274 80.428 81.4914 80.218 80.6754 79.918C79.8594 79.63 79.1694 79.264 78.6054 78.82C78.0414 78.364 77.6154 77.848 77.3274 77.272C77.0514 76.696 76.9134 76.072 76.9134 75.4V75.13Z" fill="black"/>
</svg>
