<svg width="207" height="43" viewBox="0 0 207 43" fill="none" xmlns="http://www.w3.org/2000/svg">
<path fill-rule="evenodd" clip-rule="evenodd" d="M20.2326 12.0876C9.15392 18.5368 0.0527741 23.8456 0.00751456 23.8851C-0.0374963 23.9246 0.124394 24.278 0.367353 24.6703C0.610561 25.0627 0.829399 25.4171 0.85377 25.4576C0.878389 25.4981 3.01031 24.3019 5.59185 22.7995C12.4245 18.823 26.2046 10.7994 33.7189 6.4217C37.3066 4.33158 40.3666 2.62151 40.5185 2.62151C40.7431 2.62151 74.6694 22.2341 78.8623 24.7881C79.5141 25.1849 80.0988 25.5097 80.1614 25.5097C80.3149 25.5097 81.093 23.9751 80.9908 23.8748C80.7986 23.6856 40.6496 0.358103 40.5198 0.359863C40.4405 0.360869 31.3112 5.63847 20.2326 12.0876ZM31.4589 19.9006C30.9981 20.0233 30.9874 20.637 31.4259 21.7827C31.5442 22.0923 31.3654 22.3197 30.7594 22.6295C28.8135 23.625 27.7912 25.2778 27.7539 27.4881C27.7335 28.7057 27.6186 29.0324 26.9384 29.8096C25.7254 31.1957 25.2412 32.7363 25.3839 34.7542C25.4501 35.6893 25.6948 36.8277 25.9278 37.2835C26.553 38.5061 28.0443 39.9113 29.4441 40.597C31.1456 41.4302 34.1399 41.4541 35.7827 40.6475C38.5987 39.2647 40.0065 37.1532 39.9971 34.3264C39.9916 32.6513 39.4291 30.9248 38.5798 29.9756C38.2819 29.6426 38.1941 29.1061 38.2379 27.8863C38.3376 25.1022 36.9878 23.125 34.4764 22.3773C33.5478 22.1008 33.3611 21.9202 33.007 20.9554C32.6021 19.853 32.3313 19.6687 31.4589 19.9006ZM17.7731 20.1986C17.7264 20.2839 17.3795 21.3156 17.0022 22.4914C16.625 23.6673 16.2462 24.7025 16.1607 24.7921C16.0752 24.8814 15.3336 24.8155 14.513 24.6452C12.1338 24.1517 10.5878 24.7209 9.81143 26.3756C8.08809 30.0491 9.5247 36.1298 12.6715 38.4814C13.4568 39.0682 13.6538 39.1027 15.3833 38.9558C16.4551 38.865 17.7522 38.9146 18.4331 39.0723C19.3595 39.2871 19.7936 39.2725 20.4226 39.0061C21.5113 38.5453 23.0088 36.8146 23.8048 35.0975C24.3987 33.8165 24.4601 33.4013 24.4601 30.6658C24.4601 27.9132 24.4054 27.5487 23.8384 26.5255C22.7343 24.5325 20.7264 23.74 18.7283 24.5084C18.1897 24.7154 18.0877 24.697 18.1956 24.412C18.6771 23.1434 19.3411 20.6483 19.2411 20.4846C19.0857 20.23 17.8843 19.9961 17.7731 20.1986ZM60.0204 22.1828C59.9307 23.1134 59.8382 24.0426 59.8148 24.2475C59.7832 24.5262 60.1721 24.6661 61.3563 24.8016C62.2275 24.9012 63.0028 25.0461 63.0794 25.1233C63.3386 25.3854 62.6261 29.7792 61.9989 31.7875C61.5098 33.3538 61.1166 34.0718 60.1766 35.1176C58.0477 37.4852 57.8492 38.58 59.2848 40.0321C59.769 40.5218 60.2738 41.1279 60.4069 41.3794C60.6779 41.8915 62.077 42.3578 63.3495 42.3599C67.4689 42.3669 70.6336 37.6489 70.27 32.0423C70.1183 29.7005 69.4404 28.1566 67.9568 26.7735C67.3535 26.2111 66.8599 25.6819 66.8599 25.5977C66.8599 25.5137 67.5253 25.5207 68.3387 25.6138L69.8174 25.7831L69.9606 24.9548C70.0395 24.4991 70.1295 23.5611 70.1606 22.8702L70.217 21.6144L66.7355 21.2132C64.8207 20.9926 62.5632 20.7399 61.7189 20.6516L60.1838 20.4911L60.0204 22.1828ZM65.2434 22.6147C66.8847 22.8149 68.3114 22.9824 68.4141 22.9867C68.5168 22.991 68.6006 23.2319 68.6006 23.5222C68.6006 24.0177 68.5113 24.0395 67.1436 23.8788L65.6868 23.7078L65.5272 24.5144C65.1621 26.3605 65.3118 26.849 66.4563 27.5507C68.3808 28.7308 69.2382 31.6397 68.6116 34.8621C67.8252 38.9035 65.2226 41.3571 62.3891 40.7278C61.9736 40.6354 61.6376 40.3975 61.6376 40.1953C61.6376 39.9943 62.4575 39.0111 63.4599 38.0106C65.7428 35.7313 66.2486 34.5663 66.0415 32.0652C65.9606 31.0908 65.6078 29.5976 65.236 28.6582C64.6548 27.189 64.5951 26.7783 64.7441 25.2778L64.9137 23.5699L63.2617 23.4359C61.4481 23.2885 61.2569 23.2022 61.4747 22.628C61.6518 22.1612 61.5312 22.1617 65.2434 22.6147ZM34.8534 24.4203C35.8737 24.9478 36.519 26.1792 36.52 27.6013C36.5205 28.2673 36.3984 29.044 36.2487 29.3269C36.0175 29.7643 36.1082 29.9784 36.8558 30.7566C37.9437 31.8894 38.263 32.7172 38.2578 34.392C38.2444 38.6205 33.0771 41.0193 29.3837 38.5114C27.8394 37.4628 27.0807 36.1006 27.0752 34.3676C27.07 32.6357 27.5074 31.6336 28.7734 30.4784L29.8055 29.5365L29.5148 28.4373C29.2524 27.4446 29.2825 27.2195 29.8263 26.1095C30.2862 25.1709 30.6925 24.746 31.5475 24.3094C32.7349 23.703 33.5167 23.7294 34.8534 24.4203ZM47.3515 24.1507C43.9028 25.2637 41.6995 28.2447 41.6995 31.7976C41.6995 33.895 42.2682 35.3179 43.7628 36.9575C44.3507 37.6026 45.3959 38.4311 46.0852 38.7986C47.1869 39.3857 47.6245 39.4664 49.701 39.4664C51.7775 39.4664 52.2152 39.3857 53.3168 38.7986C54.8457 37.9837 56.5359 36.1783 57.2074 34.6433C58.3028 32.1384 57.6704 28.7336 55.685 26.4466C53.845 24.3268 50.0477 23.2807 47.3515 24.1507ZM52.5367 26.1347C54.7925 27.2386 56.0485 29.2741 56.0309 31.7976C55.9918 37.3544 49.2892 40.0077 45.1397 36.1086C43.6111 34.672 42.8793 32.0187 43.4922 30.1346C44.1587 28.086 45.8065 26.3382 47.6206 25.7561C48.7446 25.3952 51.452 25.6037 52.5367 26.1347ZM21.2037 26.2992C22.2496 26.7811 22.7059 28.1088 22.7131 30.6912C22.7189 32.8193 22.6582 33.1005 21.849 34.6933C21.3703 35.6358 20.675 36.6335 20.3039 36.911C19.6885 37.371 19.5116 37.3886 18.2859 37.1112C17.4717 36.9268 16.3107 36.8725 15.3393 36.9731C13.7547 37.1373 13.7286 37.1298 13.0559 36.3212C10.697 33.4855 10.1245 27.8785 12.063 26.5939C12.6135 26.2292 12.8839 26.2129 14.1173 26.4705C15.9217 26.8475 17.7192 26.8203 18.9892 26.397C20.2826 25.9659 20.4631 25.9579 21.2037 26.2992ZM49.1208 27.438C49.0296 27.5301 48.955 27.8697 48.955 28.1926C48.955 28.6956 49.0793 28.7794 49.8254 28.7794C50.6266 28.7794 50.6957 28.7195 50.6957 28.0248C50.6957 27.3641 50.6082 27.2703 49.9912 27.2703C49.6035 27.2703 49.2119 27.3457 49.1208 27.438ZM64.5444 32.1173C64.6595 33.2458 64.581 33.7363 64.1363 34.6652C63.5629 35.8634 60.4977 38.9344 60.1144 38.695C59.6397 38.3982 59.9461 37.6369 60.9207 36.6904C62.0531 35.5908 63.4952 32.8286 63.7578 31.2556C63.9831 29.9074 64.3611 30.3217 64.5444 32.1173Z" fill="white"/>
<path d="M90.557 28.2959H117.405V31.7839H90.557V28.2959ZM92.605 8.10386H115.197V11.5279H92.605V8.10386ZM92.765 20.3919H115.101V23.7839H92.765V20.3919ZM96.637 11.2719H100.893V20.7119H96.637V11.2719ZM106.909 11.2719H111.165V20.7119H106.909V11.2719ZM119.914 20.7439H146.731V24.1039H119.914V20.7439ZM123.178 6.27986H143.466V14.2479H127.434V17.4479H123.242V11.2399H139.274V9.51186H123.178V6.27986ZM123.242 15.9759H144.042V19.2079H123.242V15.9759ZM131.178 25.4799H134.826V25.9599C134.826 27.1545 134.57 28.2639 134.058 29.2879C133.568 30.3119 132.821 31.2292 131.818 32.0399C130.816 32.8292 129.589 33.4799 128.138 33.9919C126.688 34.5252 125.024 34.8985 123.146 35.1119L121.77 31.8799C123.434 31.7305 124.853 31.4639 126.026 31.0799C127.221 30.6959 128.202 30.2372 128.97 29.7039C129.738 29.1705 130.293 28.5839 130.634 27.9439C130.997 27.2825 131.178 26.6212 131.178 25.9599V25.4799ZM131.882 25.4799H135.531V25.9599C135.531 26.6212 135.712 27.2825 136.074 27.9439C136.437 28.5839 136.992 29.1705 137.739 29.7039C138.506 30.2372 139.488 30.6959 140.683 31.0799C141.877 31.4639 143.307 31.7305 144.971 31.8799L143.562 35.1119C141.685 34.8985 140.021 34.5252 138.57 33.9919C137.12 33.4799 135.893 32.8292 134.89 32.0399C133.888 31.2292 133.13 30.3119 132.618 29.2879C132.128 28.2639 131.882 27.1545 131.882 25.9599V25.4799ZM149.272 28.2959H176.12V31.7839H149.272V28.2959ZM151.32 8.10386H173.912V11.5279H151.32V8.10386ZM151.48 20.3919H173.816V23.7839H151.48V20.3919ZM155.352 11.2719H159.608V20.7119H155.352V11.2719ZM165.624 11.2719H169.88V20.7119H165.624V11.2719ZM178.63 20.7439H205.446V24.1039H178.63V20.7439ZM181.894 6.27986H202.182V14.2479H186.15V17.4479H181.958V11.2399H197.99V9.51186H181.894V6.27986ZM181.958 15.9759H202.758V19.2079H181.958V15.9759ZM189.894 25.4799H193.542V25.9599C193.542 27.1545 193.286 28.2639 192.774 29.2879C192.283 30.3119 191.536 31.2292 190.534 32.0399C189.531 32.8292 188.304 33.4799 186.854 33.9919C185.403 34.5252 183.739 34.8985 181.862 35.1119L180.486 31.8799C182.15 31.7305 183.568 31.4639 184.742 31.0799C185.936 30.6959 186.918 30.2372 187.686 29.7039C188.454 29.1705 189.008 28.5839 189.35 27.9439C189.712 27.2825 189.894 26.6212 189.894 25.9599V25.4799ZM190.598 25.4799H194.246V25.9599C194.246 26.6212 194.427 27.2825 194.79 27.9439C195.152 28.5839 195.707 29.1705 196.454 29.7039C197.222 30.2372 198.203 30.6959 199.398 31.0799C200.592 31.4639 202.022 31.7305 203.686 31.8799L202.278 35.1119C200.4 34.8985 198.736 34.5252 197.286 33.9919C195.835 33.4799 194.608 32.8292 193.606 32.0399C192.603 31.2292 191.846 30.3119 191.334 29.2879C190.843 28.2639 190.598 27.1545 190.598 25.9599V25.4799Z" fill="white"/>
</svg>
