<svg width="24" height="31" viewBox="0 0 24 31" fill="none" xmlns="http://www.w3.org/2000/svg">
<path d="M13.866 18.8065H10.3992C9.44171 18.8065 8.57551 18.4186 7.94814 17.791C7.32065 17.1634 6.93299 16.2964 6.93299 15.3392V5.25918C6.93299 4.76365 6.73314 4.31634 6.40783 3.99242C6.09753 3.68192 5.67187 3.48397 5.19959 3.46909C4.72732 3.48397 4.30165 3.68192 3.99135 3.99242C3.66605 4.31634 3.46668 4.76365 3.46668 5.25918V3.46761C3.46668 2.50989 3.85447 1.64295 4.48183 1.01542C5.10883 0.388256 5.97553 0 6.93299 0C7.23173 0 7.52199 0.0378909 7.79969 0.108997C7.91014 0.137415 8.01923 0.171984 8.12438 0.209998C9.0805 0.559749 9.83958 1.31953 10.1897 2.27541C10.2277 2.38108 10.2623 2.49021 10.2902 2.60068C10.3613 2.87797 10.3992 3.16879 10.3992 3.46761V15.3392C10.3992 16.2964 10.7875 17.1634 11.4143 17.791C12.0418 18.4186 12.9085 18.8065 13.866 18.8065Z" fill="#3182F7"/>
<path d="M22.7053 21.364L22.6688 21.3395L22.664 21.3342C22.6274 21.3048 22.5909 21.2765 22.5549 21.2501C22.6058 21.2866 22.6559 21.3246 22.7053 21.364Z" fill="#F3F5F4"/>
<path d="M23.999 24.0651V27.5328C23.999 26.575 23.6114 25.7081 22.984 25.0806C22.357 24.4534 21.4903 24.0651 20.5328 24.0651H3.46668C2.50921 24.0651 1.64251 23.6774 1.01515 23.0497C0.388154 22.4226 0 21.5556 0 20.5979V3.46761C0 3.40807 0.00184501 3.34841 0.00479674 3.28935C0.022999 2.95252 0.0940866 2.59256 0.20945 2.27541C0.384832 1.79673 0.661926 1.36911 1.01515 1.01542C1.26445 0.766425 1.55322 0.563194 1.86684 0.404619C2.18206 0.246044 2.51881 0.134094 2.86232 0.0615109C3.06549 0.0201756 3.26682 0.0148858 3.47295 0.0134095C4.11717 0.00811958 4.76187 0.0100877 5.40621 0.00528984C5.83519 0.00184524 6.26418 0 6.69513 0H6.93299C5.97552 0 5.10882 0.388256 4.48183 1.01542C3.85446 1.64295 3.46668 2.50989 3.46668 3.46761V18.8065C3.46668 19.3019 3.66604 19.7493 3.99135 20.0727C4.31518 20.398 4.76236 20.5979 5.25727 20.5979H20.5328C20.5444 20.5979 20.5558 20.5979 20.5674 20.5994C21.2131 20.6047 21.8156 20.7864 22.3306 21.0996C22.3686 21.1227 22.4064 21.1477 22.4444 21.1727C23.3625 21.7714 23.999 22.9589 23.999 24.0651Z" fill="#3182F7"/>
<path d="M6.17538 0.000984572C6.19691 0.000492485 6.21806 0.000492087 6.23922 0H6.58469C6.57792 0 6.57165 -2.70335e-07 6.56587 0.000491817C6.43526 0.000491817 6.30551 0.000492485 6.17538 0.000984572Z" fill="white"/>
<path d="M23.6507 26.0143C23.5571 25.8225 23.4466 25.6404 23.3207 25.4708V24.7451C23.3207 23.6389 22.6837 22.4515 21.7655 21.8522C21.7277 21.8271 21.6897 21.8026 21.6518 21.7796C21.1367 21.4658 20.5343 21.2841 19.8891 21.2793C19.8771 21.2775 19.866 21.2775 19.8544 21.2775H4.57887C4.0836 21.2775 3.63629 21.078 3.31295 20.7527C2.98777 20.4287 2.78791 19.9814 2.78791 19.4859V3.46761C2.78791 2.50989 3.17557 1.64295 3.80306 1.01542C4.41308 0.405599 5.25002 0.0211566 6.17539 0.000981036C6.30551 0.000488949 6.43526 0.000488281 6.56587 0.000488281C5.61566 0.00528613 4.75622 0.392066 4.13304 1.01542C3.50616 1.64295 3.11789 2.50989 3.11789 3.46761V19.1558C3.11789 19.6512 3.31774 20.0987 3.64305 20.4221C3.96639 20.7474 4.41357 20.9473 4.90897 20.9473H20.1845C20.1961 20.9473 20.2075 20.9473 20.2191 20.9488C20.8643 20.954 21.4668 21.1356 21.9818 21.4495C22.0198 21.4726 22.0576 21.4971 22.0956 21.522C23.0138 22.1213 23.6507 23.3083 23.6507 24.4145V26.0143Z" fill="#3182F7"/>
<path d="M20.5328 25.7413V25.8566C20.5328 25.8369 20.5328 25.8187 20.5314 25.799C20.5328 25.7792 20.5328 25.761 20.5328 25.7413Z" fill="#F3F5F4"/>
<path d="M20.5328 25.7413V25.8566C20.5328 25.8369 20.5328 25.8187 20.5314 25.799C20.5328 25.7792 20.5328 25.761 20.5328 25.7413Z" fill="#F3F5F4"/>
<path d="M23.999 27.5327C23.999 29.4478 22.4478 31 20.5328 31H3.44503C2.79455 30.9947 2.18539 30.8135 1.66896 30.4978L1.29421 30.2339C0.707186 29.838 0.282874 29.0758 0.108968 28.3992C0.0955623 28.3449 0.0826498 28.2907 0.0725647 28.2358C0.0461222 28.1138 0.0264427 27.9869 0.0167266 27.8596C0.0100853 27.81 0.00664156 27.7606 0.00479674 27.7111C0.00184501 27.6515 0 27.5919 0 27.5327V24.0651C0 25.0228 0.388154 25.8898 1.01515 26.5169C1.64251 27.1445 2.50921 27.5327 3.46668 27.5327H18.7417C19.2371 27.5327 19.6843 27.3328 20.0077 27.0076C20.3199 26.6971 20.5165 26.2713 20.5314 25.799C20.5328 25.8187 20.5328 25.8369 20.5328 25.8566V25.7413C20.5328 25.761 20.5328 25.7792 20.5314 25.799C20.5165 25.3266 20.3199 24.9008 20.0077 24.5903C19.6843 24.265 19.2371 24.0651 18.7417 24.0651H20.5328C21.4903 24.0651 22.357 24.4534 22.984 25.0805C23.6114 25.7081 23.999 26.575 23.999 27.5327Z" fill="#3182F7"/>
<path d="M23.999 27.5327C23.999 29.4478 22.4478 31 20.5328 31H3.44503C2.79455 30.9947 2.18539 30.8135 1.66896 30.4978L1.29421 30.2339C0.707186 29.838 0.282874 29.0758 0.108968 28.3992C0.0955623 28.3449 0.0826498 28.2907 0.0725647 28.2358C0.0461222 28.1138 0.0264427 27.9869 0.0167266 27.8596C0.0100853 27.81 0.00664156 27.7606 0.00479674 27.7111C0.00184501 27.6515 0 27.5919 0 27.5327V24.0651C0 25.0228 0.388154 25.8898 1.01515 26.5169C1.64251 27.1445 2.50921 27.5327 3.46668 27.5327H18.7417C19.2371 27.5327 19.6843 27.3328 20.0077 27.0076C20.3199 26.6971 20.5165 26.2713 20.5314 25.799C20.5328 25.8187 20.5328 25.8369 20.5328 25.8566V25.7413C20.5328 25.761 20.5328 25.7792 20.5314 25.799C20.5165 25.3266 20.3199 24.9008 20.0077 24.5903C19.6843 24.265 19.2371 24.0651 18.7417 24.0651H20.5328C21.4903 24.0651 22.357 24.4534 22.984 25.0805C23.6114 25.7081 23.999 26.575 23.999 27.5327Z" fill="#3182F7"/>
<path d="M18.7417 27.5328H3.46668C3.05356 27.5328 2.65717 27.4603 2.29017 27.3276C2.65766 27.4603 3.05356 27.5323 3.46619 27.5323H18.7422C19.2376 27.5323 19.6848 27.3324 20.0077 27.0071C20.0779 26.9378 20.1417 26.8624 20.1994 26.7822C20.1417 26.8624 20.0779 26.9378 20.0077 27.0076C19.6843 27.3329 19.2371 27.5328 18.7417 27.5328Z" fill="#80838A"/>
<path d="M0.314115 25.5096C0.121023 25.0882 0.00959707 24.6216 0.000495911 24.1295V24.0646C0.000495911 24.5802 0.112906 25.0695 0.314115 25.5096Z" fill="#80838A"/>
<path d="M18.7422 27.9639H3.46619C2.50971 27.9639 1.64203 27.5766 1.01515 26.9489C0.387664 26.3219 0.000495911 25.454 0.000495911 24.4962V24.1295C0.00959707 24.6216 0.121023 25.0882 0.314115 25.5097C0.486668 25.8869 0.725391 26.2281 1.01515 26.5179C1.37157 26.8745 1.80584 27.1536 2.29017 27.3276C2.65717 27.4603 3.05357 27.5328 3.46668 27.5328H18.7417C19.2371 27.5328 19.6843 27.3329 20.0077 27.0076C20.0779 26.9379 20.1417 26.8624 20.1994 26.7822C20.3589 26.5597 20.4684 26.2983 20.5117 26.0148C20.5227 26.0849 20.529 26.158 20.5314 26.2305C20.517 26.7024 20.3196 27.1292 20.0077 27.4387C19.6848 27.7639 19.2376 27.9639 18.7422 27.9639Z" fill="#3182F7"/>
<path d="M20.5328 26.2886C20.5328 26.2689 20.5328 26.2502 20.5314 26.2304C20.5328 26.2107 20.5328 26.192 20.5328 26.1724V26.2886Z" fill="#3182F7"/>
<path d="M23.2016 29.7458C23.6998 29.1455 23.999 28.3737 23.999 27.5327V27.4626C23.9995 27.4861 24 27.5092 24 27.5327C24 28.3747 23.7003 29.146 23.2016 29.7458Z" fill="#80838A"/>
<path d="M23.999 27.5327C23.999 26.9884 23.8742 26.4737 23.6507 26.0152V26.0143C23.8646 26.453 23.9889 26.9436 23.999 27.4626V27.5327ZM23.3207 25.4713C23.2184 25.3329 23.1055 25.2021 22.984 25.0806C22.5458 24.6422 21.9904 24.3203 21.3688 24.1665C21.9904 24.3203 22.5463 24.6422 22.9849 25.081C23.106 25.2021 23.2184 25.3324 23.3207 25.4708V25.4713Z" fill="#3182F7"/>
<path d="M23.6507 26.0151C23.5571 25.8235 23.4466 25.6413 23.3207 25.4713V25.4708C23.4466 25.6404 23.5571 25.8225 23.6507 26.0143V26.0151Z" fill="#3182F7"/>
<path d="M19.5091 24.2371C19.277 24.1271 19.0166 24.0656 18.7427 24.0656H18.7668C19.0325 24.0689 19.2838 24.13 19.5091 24.2371Z" fill="#80838A"/>
<path d="M22.8129 30.1431C23.3482 29.5338 23.67 28.7366 23.67 27.8629C23.67 26.9052 23.2817 26.0383 22.6549 25.4111C22.0274 24.7836 21.1607 24.3957 20.2032 24.3957H19.779C19.6944 24.3352 19.6041 24.2823 19.5091 24.2371C19.2838 24.13 19.0325 24.0689 18.7668 24.0656H20.5333C20.8216 24.0656 21.1012 24.1007 21.3688 24.1665C21.9904 24.3203 22.5458 24.6422 22.984 25.0805C23.6114 25.7081 23.999 26.575 23.999 27.5327C23.999 28.3737 23.6998 29.1455 23.2016 29.7458C23.0829 29.8885 22.9532 30.0216 22.8129 30.1431Z" fill="#3182F7"/>
<path d="M20.5328 25.8566C20.5328 25.85 20.5328 25.8437 20.5328 25.8374V25.7605C20.5328 25.7543 20.5328 25.7476 20.5328 25.7413V25.8566ZM20.5323 25.8254C20.5323 25.8167 20.5318 25.8081 20.5314 25.799C20.5318 25.7893 20.5323 25.7802 20.5328 25.7716C20.5323 25.7802 20.5323 25.7898 20.5314 25.799C20.5323 25.8081 20.5323 25.8167 20.5323 25.8254Z" fill="#F3F5F4"/>
<path d="M20.5328 25.8374C20.5328 25.8336 20.5328 25.8293 20.5323 25.8253C20.5323 25.8167 20.5323 25.8081 20.5314 25.799C20.5323 25.7898 20.5323 25.7802 20.5328 25.7716C20.5328 25.7678 20.5328 25.7643 20.5328 25.7605V25.8374Z" fill="#ABADB1"/>
<path d="M13.866 18.8059H13.8189C12.8801 18.7934 12.0317 18.408 11.4143 17.791C10.9465 17.3224 10.6111 16.7209 10.4717 16.0471C10.6116 16.7204 10.9465 17.3219 11.4148 17.7905C12.0418 18.4177 12.908 18.8059 13.866 18.8059ZM3.46717 5.25916V5.20823C3.47726 4.84052 3.59791 4.50086 3.79727 4.22111V4.22209C3.58917 4.51476 3.46717 4.87275 3.46717 5.25916ZM10.3344 2.79627C10.3214 2.73045 10.3069 2.66513 10.2902 2.60066C10.2661 2.50458 10.2368 2.40949 10.2046 2.31722C10.2368 2.40949 10.2661 2.50458 10.2907 2.60017C10.3069 2.66463 10.3218 2.72996 10.3344 2.79627ZM8.25745 0.261897C8.21379 0.243567 8.16952 0.226344 8.12438 0.209982C8.01923 0.171969 7.91013 0.1374 7.79969 0.108982C7.79342 0.107628 7.78764 0.106152 7.78137 0.104675C7.78715 0.106152 7.79293 0.107136 7.7992 0.108982C7.95527 0.148471 8.10852 0.199894 8.25745 0.261897Z" fill="#80838A"/>
<path d="M13.8189 18.806H13.496C12.5386 18.806 11.6724 18.4177 11.0449 17.7905C10.4175 17.1629 10.0294 16.2964 10.0294 15.3387V3.4681C10.0294 3.1683 9.99135 2.87846 9.92124 2.60018C9.89283 2.4902 9.85827 2.38059 9.81978 2.2759C9.76074 2.11289 9.68634 1.9558 9.59889 1.80633C9.11505 0.981711 8.23827 0.392067 7.27453 0.351716C7.23419 0.350239 7.19385 0.349378 7.15351 0.349378C6.28349 0.349378 5.41912 0.739111 4.81242 1.34598C4.18542 1.97363 3.79727 2.84057 3.79727 3.7978V4.22112C3.59791 4.50087 3.47726 4.84053 3.46717 5.20824V3.46761C3.46717 2.50989 3.85483 1.64295 4.48232 1.01591C5.06897 0.429097 5.86545 0.0519115 6.74949 0.00528631C6.81049 0.0018417 6.87199 0.000488281 6.93348 0.000488281C7.1909 0.000488281 7.44216 0.0302599 7.68433 0.0835283C7.71655 0.0902945 7.74927 0.0970603 7.78137 0.104688C7.78764 0.106164 7.79342 0.107641 7.79969 0.108994C7.91013 0.137412 8.01923 0.171981 8.12438 0.209995C8.16952 0.226357 8.21379 0.243579 8.25745 0.261909C8.55583 0.3853 8.83685 0.551626 9.08861 0.752028C9.13768 0.791395 9.18614 0.831746 9.23325 0.873573L9.24087 0.88034C9.66223 1.25666 9.99184 1.73472 10.1897 2.2759C10.1945 2.2898 10.1993 2.30321 10.2046 2.31723C10.2368 2.4095 10.2661 2.5046 10.2902 2.60068C10.3069 2.66514 10.3214 2.73046 10.3344 2.79628C10.3767 3.01403 10.3992 3.23793 10.3992 3.4681V15.3387C10.3992 15.5814 10.4243 15.8184 10.4717 16.0471C10.6111 16.7209 10.9465 17.3224 11.4143 17.791C12.0317 18.408 12.8801 18.7934 13.8189 18.806Z" fill="#3182F7"/>
</svg>
