<svg width="130" height="77" viewBox="0 0 130 77" fill="none" xmlns="http://www.w3.org/2000/svg">
<path fill-rule="evenodd" clip-rule="evenodd" d="M63.595 6.60228V13.2046L64.8898 14.0721C65.602 14.5491 66.2894 14.8757 66.4172 14.7977C66.5451 14.7197 66.585 11.3583 66.5055 7.32817C66.4024 2.10734 66.4734 0 66.7527 0C67.2057 0 77.3714 5.28385 80.0654 6.91945C82.6098 8.46453 83.0663 9.56259 82.9392 13.8312L82.8382 17.2333H80.5431H78.2481L78.1429 14.6309C78.0705 12.8432 77.8593 11.8346 77.4681 11.4085C76.8513 10.7362 72.211 8.00741 71.6849 8.00741C71.5052 8.00741 71.3629 10.3083 71.3629 13.2119V18.4163L72.5104 19.2623C73.1418 19.7275 75.3263 21.1469 77.3654 22.4162C83.3534 26.1445 82.8191 25.3887 82.9575 30.3282C83.162 37.6306 82.7771 38.531 78.4246 40.9335C71.4582 44.7788 67.0563 46.9986 66.7573 46.8165C66.5613 46.6971 66.4197 43.7967 66.4197 39.9068V33.2029L65.1719 32.6163C64.4855 32.2935 63.85 32.0296 63.7596 32.0296C63.6692 32.0296 63.595 35.398 63.595 39.5148C63.595 43.6317 63.4679 47 63.3122 47C63.1569 47 60.9723 45.8894 58.4573 44.532C55.9426 43.1746 52.8524 41.5205 51.5901 40.8566C47.7514 38.837 47.0057 37.5011 47.0021 32.6389L47 29.9407H49.6481H52.2963V32.5341C52.2963 35.054 52.3288 35.1515 53.4438 35.9759C54.0751 36.4424 55.5048 37.3271 56.6216 37.9415L58.6518 39.0591V33.6684V28.2776L53.7969 25.2244C46.6695 20.742 47.196 21.5114 47.0756 15.3986C46.9297 7.99557 46.523 8.51222 56.5065 3.41777C59.1133 2.0875 61.5715 0.774281 61.9694 0.499593C63.5435 -0.587326 63.595 -0.394101 63.595 6.60228ZM56.2801 9.03827C55.2668 9.58521 53.9505 10.3748 53.3548 10.7933L52.2716 11.5536L52.3722 14.9115L52.4728 18.2698L55.2071 20.1212C56.7106 21.1399 58.8923 22.5516 60.0546 23.2587C61.2174 23.9658 64.2373 25.8601 66.7657 27.4678L71.3629 30.3912V34.7208C71.3629 37.1022 71.4826 38.9985 71.6288 38.9345C72.6061 38.5076 76.2747 36.4257 76.9551 35.9115C77.6923 35.3544 77.7926 34.959 77.8901 32.2162C77.9903 29.3952 77.9338 29.0853 77.1959 28.4113C76.7538 28.0078 73.4733 25.8423 69.9054 23.5989C66.3374 21.3558 62.3857 18.847 61.1234 18.0247L58.8284 16.529L58.7292 12.2684C58.6748 9.92466 58.5159 8.01576 58.3761 8.02586C58.2366 8.03595 57.2932 8.49168 56.2801 9.03827Z" fill="black"/>
<path fill-rule="evenodd" clip-rule="evenodd" d="M63.595 6.60228V13.2046L64.8898 14.0721C65.602 14.5491 66.2894 14.8757 66.4172 14.7977C66.5451 14.7197 66.585 11.3583 66.5055 7.32817C66.4024 2.10734 66.4734 0 66.7527 0C67.2057 0 77.3714 5.28385 80.0654 6.91945C82.6098 8.46453 83.0663 9.56259 82.9392 13.8312L82.8382 17.2333H80.5431H78.2481L78.1429 14.6309C78.0705 12.8432 77.8593 11.8346 77.4681 11.4085C76.8513 10.7362 72.211 8.00741 71.6849 8.00741C71.5052 8.00741 71.3629 10.3083 71.3629 13.2119V18.4163L72.5104 19.2623C73.1418 19.7275 75.3263 21.1469 77.3654 22.4162C83.3534 26.1445 82.8191 25.3887 82.9575 30.3282C83.162 37.6306 82.7771 38.531 78.4246 40.9335C71.4582 44.7788 67.0563 46.9986 66.7573 46.8165C66.5613 46.6971 66.4197 43.7967 66.4197 39.9068V33.2029L65.1719 32.6163C64.4855 32.2935 63.85 32.0296 63.7596 32.0296C63.6692 32.0296 63.595 35.398 63.595 39.5148C63.595 43.6317 63.4679 47 63.3122 47C63.1569 47 60.9723 45.8894 58.4573 44.532C55.9426 43.1746 52.8524 41.5205 51.5901 40.8566C47.7514 38.837 47.0057 37.5011 47.0021 32.6389L47 29.9407H49.6481H52.2963V32.5341C52.2963 35.054 52.3288 35.1515 53.4438 35.9759C54.0751 36.4424 55.5048 37.3271 56.6216 37.9415L58.6518 39.0591V33.6684V28.2776L53.7969 25.2244C46.6695 20.742 47.196 21.5114 47.0756 15.3986C46.9297 7.99557 46.523 8.51222 56.5065 3.41777C59.1133 2.0875 61.5715 0.774281 61.9694 0.499593C63.5435 -0.587326 63.595 -0.394101 63.595 6.60228ZM53.3548 10.7933C53.9505 10.3748 55.2668 9.58521 56.2801 9.03827C57.2932 8.49168 58.2366 8.03595 58.3761 8.02586C58.5159 8.01576 58.6748 9.92466 58.7292 12.2684L58.8284 16.529L61.1234 18.0247C62.3857 18.847 66.3374 21.3558 69.9054 23.5989C73.4733 25.8423 76.7538 28.0078 77.1959 28.4113C77.9338 29.0853 77.9903 29.3952 77.8901 32.2162C77.7926 34.959 77.6923 35.3544 76.9551 35.9115C76.2747 36.4257 72.6061 38.5076 71.6288 38.9345C71.4826 38.9985 71.3629 37.1022 71.3629 34.7208V30.3912L66.7657 27.4678C64.2373 25.8601 61.2174 23.9658 60.0546 23.2587C58.8923 22.5516 56.7106 21.1399 55.2071 20.1212L52.4728 18.2698L52.3722 14.9115L52.2716 11.5536L53.3548 10.7933Z" fill="black"/>
<path d="M7.08945 69.9199C7.79909 69.9199 8.37526 69.8418 8.81797 69.6855C9.65781 69.3861 10.0777 68.8294 10.0777 68.0156C10.0777 67.5404 9.8694 67.1725 9.45274 66.9121C9.03607 66.6582 8.38177 66.4336 7.48985 66.2383L5.96641 65.8965C4.46901 65.5579 3.43386 65.1901 2.86094 64.793C1.89089 64.1289 1.40586 63.0905 1.40586 61.6777C1.40586 60.3887 1.87461 59.3177 2.81211 58.4648C3.74961 57.612 5.12656 57.1855 6.94297 57.1855C8.4599 57.1855 9.75222 57.5892 10.8199 58.3965C11.8941 59.1973 12.4573 60.3626 12.5094 61.8926H9.61875C9.56667 61.0267 9.18906 60.4115 8.48594 60.0469C8.01719 59.806 7.43451 59.6855 6.73789 59.6855C5.96315 59.6855 5.34466 59.8418 4.88242 60.1543C4.42018 60.4668 4.18906 60.903 4.18906 61.4629C4.18906 61.9772 4.41693 62.3613 4.87266 62.6152C5.16563 62.7845 5.79063 62.9831 6.74766 63.2109L9.22813 63.8066C10.3154 64.0671 11.1357 64.4154 11.6891 64.8516C12.5484 65.5286 12.9781 66.5085 12.9781 67.791C12.9781 69.1061 12.4736 70.1999 11.4645 71.0723C10.4619 71.9382 9.04258 72.3711 7.20664 72.3711C5.33164 72.3711 3.85703 71.9447 2.78281 71.0918C1.7086 70.2324 1.17149 69.054 1.17149 67.5566H4.04258C4.13373 68.2142 4.31276 68.7057 4.57969 69.0312C5.06797 69.6237 5.90456 69.9199 7.08945 69.9199ZM23.9528 71.6484C23.1585 72.1367 22.182 72.3809 21.0231 72.3809C19.1156 72.3809 17.5531 71.7201 16.3356 70.3984C15.0661 69.0703 14.4313 67.2539 14.4313 64.9492C14.4313 62.6185 15.0726 60.75 16.3552 59.3438C17.6377 57.9375 19.3337 57.2344 21.443 57.2344C23.2725 57.2344 24.7406 57.6999 25.8473 58.6309C26.9606 59.5553 27.5986 60.7109 27.7614 62.0977H24.8024C24.5746 61.1146 24.0179 60.4277 23.1325 60.0371C22.6377 59.8223 22.0876 59.7148 21.4821 59.7148C20.3233 59.7148 19.3695 60.1543 18.6208 61.0332C17.8786 61.9056 17.5075 63.2207 17.5075 64.9785C17.5075 66.7493 17.9111 68.0026 18.7184 68.7383C19.5257 69.474 20.4437 69.8418 21.4723 69.8418C22.4815 69.8418 23.3083 69.5521 23.9528 68.9727C24.5973 68.3867 24.9945 67.6217 25.1442 66.6777H21.8141V64.2754H27.8102V72H25.818L25.5153 70.2031C24.9359 70.8867 24.4151 71.3685 23.9528 71.6484ZM35.8357 69.9199C36.5453 69.9199 37.1215 69.8418 37.5642 69.6855C38.4041 69.3861 38.824 68.8294 38.824 68.0156C38.824 67.5404 38.6157 67.1725 38.199 66.9121C37.7823 66.6582 37.128 66.4336 36.2361 66.2383L34.7127 65.8965C33.2153 65.5579 32.1801 65.1901 31.6072 64.793C30.6371 64.1289 30.1521 63.0905 30.1521 61.6777C30.1521 60.3887 30.6209 59.3177 31.5584 58.4648C32.4959 57.612 33.8728 57.1855 35.6892 57.1855C37.2061 57.1855 38.4985 57.5892 39.5662 58.3965C40.6404 59.1973 41.2035 60.3626 41.2556 61.8926H38.365C38.3129 61.0267 37.9353 60.4115 37.2322 60.0469C36.7634 59.806 36.1808 59.6855 35.4841 59.6855C34.7094 59.6855 34.0909 59.8418 33.6287 60.1543C33.1664 60.4668 32.9353 60.903 32.9353 61.4629C32.9353 61.9772 33.1632 62.3613 33.6189 62.6152C33.9119 62.7845 34.5369 62.9831 35.4939 63.2109L37.9744 63.8066C39.0616 64.0671 39.8819 64.4154 40.4353 64.8516C41.2947 65.5286 41.7244 66.5085 41.7244 67.791C41.7244 69.1061 41.2198 70.1999 40.2107 71.0723C39.2081 71.9382 37.7888 72.3711 35.9529 72.3711C34.0779 72.3711 32.6033 71.9447 31.5291 71.0918C30.4548 70.2324 29.9177 69.054 29.9177 67.5566H32.7888C32.88 68.2142 33.059 68.7057 33.3259 69.0312C33.8142 69.6237 34.6508 69.9199 35.8357 69.9199ZM52.1113 72H49.3085V57.6055H53.6835L56.3007 68.9238L58.8984 57.6055H63.2245V72H60.4218V62.2637C60.4218 61.9837 60.4251 61.5931 60.4316 61.0918C60.4381 60.584 60.4413 60.1934 60.4413 59.9199L57.7167 72H54.7968L52.0917 59.9199C52.0917 60.1934 52.095 60.584 52.1015 61.0918C52.108 61.5931 52.1113 61.9837 52.1113 62.2637V72ZM66.1133 62.5078C66.849 61.5703 68.112 61.1016 69.9023 61.1016C71.0677 61.1016 72.1029 61.3327 73.0078 61.7949C73.9128 62.2572 74.3652 63.1296 74.3652 64.4121V69.2949C74.3652 69.6335 74.3717 70.0436 74.3848 70.5254C74.4043 70.89 74.4596 71.1374 74.5508 71.2676C74.6419 71.3978 74.7786 71.5052 74.9609 71.5898V72H71.9336C71.849 71.7852 71.7904 71.5833 71.7578 71.3945C71.7253 71.2057 71.6992 70.9909 71.6797 70.75C71.2956 71.1667 70.8529 71.5215 70.3516 71.8145C69.7526 72.1595 69.0755 72.332 68.3203 72.332C67.3568 72.332 66.5592 72.0586 65.9277 71.5117C65.3027 70.9583 64.9902 70.1771 64.9902 69.168C64.9902 67.8594 65.4948 66.9121 66.5039 66.3262C67.0573 66.0072 67.8711 65.7793 68.9453 65.6426L69.8926 65.5254C70.4069 65.4603 70.7747 65.3789 70.9961 65.2812C71.3932 65.112 71.5918 64.8483 71.5918 64.4902C71.5918 64.054 71.4388 63.7546 71.1328 63.5918C70.8333 63.4225 70.3906 63.3379 69.8047 63.3379C69.1471 63.3379 68.6816 63.5007 68.4082 63.8262C68.2129 64.0671 68.0827 64.3926 68.0176 64.8027H65.332C65.3906 63.8717 65.651 63.1068 66.1133 62.5078ZM68.1836 69.9883C68.444 70.2031 68.763 70.3105 69.1406 70.3105C69.7396 70.3105 70.2897 70.1348 70.791 69.7832C71.2988 69.4316 71.5625 68.7904 71.582 67.8594V66.8242C71.4062 66.9349 71.2272 67.026 71.0449 67.0977C70.8691 67.1628 70.625 67.2246 70.3125 67.2832L69.6875 67.4004C69.1016 67.5046 68.6816 67.6315 68.4277 67.7812C67.998 68.0352 67.7832 68.429 67.7832 68.9629C67.7832 69.4382 67.9167 69.7799 68.1836 69.9883ZM81.7755 63.416C80.8315 63.416 80.1837 63.8164 79.8321 64.6172C79.6498 65.0404 79.5587 65.5807 79.5587 66.2383V72H76.7852V61.375H79.4708V62.9277C79.8289 62.3809 80.1674 61.987 80.4864 61.7461C81.0593 61.3164 81.7852 61.1016 82.6641 61.1016C83.7644 61.1016 84.6628 61.3913 85.3595 61.9707C86.0626 62.5436 86.4141 63.4974 86.4141 64.832V72H83.5626V65.5254C83.5626 64.9655 83.4877 64.5358 83.338 64.2363C83.0645 63.6895 82.5437 63.416 81.7755 63.416ZM89.3127 62.5078C90.0483 61.5703 91.3114 61.1016 93.1017 61.1016C94.2671 61.1016 95.3022 61.3327 96.2072 61.7949C97.1121 62.2572 97.5646 63.1296 97.5646 64.4121V69.2949C97.5646 69.6335 97.5711 70.0436 97.5841 70.5254C97.6037 70.89 97.659 71.1374 97.7502 71.2676C97.8413 71.3978 97.978 71.5052 98.1603 71.5898V72H95.133C95.0483 71.7852 94.9897 71.5833 94.9572 71.3945C94.9246 71.2057 94.8986 70.9909 94.8791 70.75C94.495 71.1667 94.0522 71.5215 93.5509 71.8145C92.952 72.1595 92.2749 72.332 91.5197 72.332C90.5561 72.332 89.7586 72.0586 89.1271 71.5117C88.5021 70.9583 88.1896 70.1771 88.1896 69.168C88.1896 67.8594 88.6942 66.9121 89.7033 66.3262C90.2567 66.0072 91.0705 65.7793 92.1447 65.6426L93.092 65.5254C93.6063 65.4603 93.9741 65.3789 94.1955 65.2812C94.5926 65.112 94.7912 64.8483 94.7912 64.4902C94.7912 64.054 94.6382 63.7546 94.3322 63.5918C94.0327 63.4225 93.59 63.3379 93.0041 63.3379C92.3465 63.3379 91.881 63.5007 91.6076 63.8262C91.4123 64.0671 91.2821 64.3926 91.217 64.8027H88.5314C88.59 63.8717 88.8504 63.1068 89.3127 62.5078ZM91.383 69.9883C91.6434 70.2031 91.9624 70.3105 92.34 70.3105C92.939 70.3105 93.4891 70.1348 93.9904 69.7832C94.4982 69.4316 94.7619 68.7904 94.7814 67.8594V66.8242C94.6056 66.9349 94.4266 67.026 94.2443 67.0977C94.0685 67.1628 93.8244 67.2246 93.5119 67.2832L92.8869 67.4004C92.3009 67.5046 91.881 67.6315 91.6271 67.7812C91.1974 68.0352 90.9826 68.429 90.9826 68.9629C90.9826 69.4382 91.116 69.7799 91.383 69.9883ZM102.973 73.8652C103.272 74.1191 103.777 74.2461 104.487 74.2461C105.489 74.2461 106.16 73.9108 106.498 73.2402C106.72 72.8105 106.83 72.0879 106.83 71.0723V70.3887C106.563 70.8444 106.277 71.1862 105.971 71.4141C105.418 71.8372 104.698 72.0488 103.813 72.0488C102.446 72.0488 101.352 71.5703 100.531 70.6133C99.7177 69.6497 99.3108 68.3477 99.3108 66.707C99.3108 65.125 99.7047 63.7969 100.492 62.7227C101.28 61.6419 102.397 61.1016 103.842 61.1016C104.376 61.1016 104.841 61.1829 105.239 61.3457C105.916 61.6257 106.462 62.14 106.879 62.8887V61.3555H109.584V71.4531C109.584 72.8268 109.353 73.862 108.891 74.5586C108.097 75.7565 106.573 76.3555 104.321 76.3555C102.96 76.3555 101.85 76.0885 100.99 75.5547C100.131 75.0208 99.6558 74.2233 99.5647 73.1621H102.592C102.67 73.4876 102.797 73.722 102.973 73.8652ZM102.504 68.3672C102.882 69.2656 103.559 69.7148 104.535 69.7148C105.186 69.7148 105.737 69.4707 106.186 68.9824C106.635 68.4876 106.86 67.7031 106.86 66.6289C106.86 65.6198 106.645 64.8516 106.215 64.3242C105.792 63.7969 105.222 63.5332 104.506 63.5332C103.53 63.5332 102.856 63.9922 102.485 64.9102C102.289 65.3984 102.192 66.0007 102.192 66.7168C102.192 67.3353 102.296 67.8854 102.504 68.3672ZM121.223 68.875C121.151 69.5065 120.823 70.1478 120.237 70.7988C119.325 71.834 118.049 72.3516 116.409 72.3516C115.054 72.3516 113.86 71.9154 112.825 71.043C111.789 70.1706 111.272 68.7513 111.272 66.7852C111.272 64.9427 111.737 63.5299 112.668 62.5469C113.606 61.5638 114.82 61.0723 116.311 61.0723C117.196 61.0723 117.994 61.2383 118.703 61.5703C119.413 61.9023 119.999 62.4264 120.461 63.1426C120.878 63.7741 121.148 64.5065 121.272 65.3398C121.343 65.8281 121.373 66.5312 121.36 67.4492H114.075C114.114 68.5169 114.449 69.2656 115.08 69.6953C115.465 69.9622 115.927 70.0957 116.467 70.0957C117.04 70.0957 117.506 69.9329 117.864 69.6074C118.059 69.4316 118.231 69.1875 118.381 68.875H121.223ZM118.469 65.6133C118.423 64.8776 118.199 64.321 117.795 63.9434C117.398 63.5592 116.903 63.3672 116.311 63.3672C115.666 63.3672 115.165 63.569 114.807 63.9727C114.455 64.3763 114.234 64.9232 114.143 65.6133H118.469ZM128.516 63.9238C127.396 63.9238 126.644 64.2884 126.26 65.0176C126.045 65.4277 125.938 66.0592 125.938 66.9121V72H123.135V61.3555H125.791V63.2109C126.221 62.5013 126.595 62.0163 126.914 61.7559C127.435 61.3197 128.112 61.1016 128.946 61.1016C128.998 61.1016 129.04 61.1048 129.073 61.1113C129.112 61.1113 129.193 61.1146 129.317 61.1211V63.9727C129.141 63.9531 128.985 63.9401 128.848 63.9336C128.711 63.9271 128.601 63.9238 128.516 63.9238Z" fill="black"/>
</svg>
