<svg width="242" height="35" viewBox="0 0 242 35" fill="none" xmlns="http://www.w3.org/2000/svg">
<path fill-rule="evenodd" clip-rule="evenodd" d="M11.9853 4.77612V9.55223L12.9204 10.1799C13.4348 10.5249 13.9313 10.7611 14.0236 10.7047C14.1159 10.6483 14.1447 8.21667 14.0873 5.30123C14.0129 1.52446 14.0641 0 14.2658 0C14.593 0 21.9349 3.82236 23.8806 5.00556C25.7182 6.12328 26.0479 6.91762 25.9561 10.0056L25.8831 12.4667H24.2256H22.5681L22.4921 10.5841C22.4398 9.29081 22.2873 8.5612 22.0047 8.25293C21.5592 7.76661 18.208 5.79259 17.828 5.79259C17.6982 5.79259 17.5954 7.45708 17.5954 9.55753V13.3225L18.4242 13.9345C18.8802 14.2709 20.4579 15.2977 21.9305 16.216C26.2552 18.9131 25.8694 18.3663 25.9693 21.9396C26.117 27.2222 25.839 27.8735 22.6956 29.6115C17.6643 32.3932 14.4851 33.999 14.2691 33.8673C14.1276 33.7809 14.0253 31.6827 14.0253 28.8688V24.0191L13.1242 23.5947C12.6284 23.3613 12.1694 23.1704 12.1041 23.1704C12.0389 23.1704 11.9853 25.607 11.9853 28.5852C11.9853 31.5633 11.8935 34 11.781 34C11.6688 34 10.0911 33.1966 8.2747 32.2146C6.45855 31.2327 4.22673 30.0361 3.31508 29.5558C0.542655 28.0948 0.00408537 27.1285 0.00153531 23.6111L0 21.6593H1.91255H3.8251V23.5353C3.8251 25.3582 3.84856 25.4287 4.65387 26.0251C5.10982 26.3626 6.14234 27.0025 6.94892 27.4471L8.41521 28.2555V24.3558V20.4562L4.90887 18.2474C-0.238686 15.0048 0.141528 15.5614 0.0545704 11.1394C-0.0507472 5.78403 -0.34451 6.15778 6.86579 2.47243C8.74851 1.5101 10.5239 0.560119 10.8112 0.361407C11.9481 -0.424874 11.9853 -0.285094 11.9853 4.77612ZM6.70233 6.53833C5.97046 6.93399 5.0198 7.50519 4.5896 7.80791L3.80724 8.35796L3.87992 10.7871L3.9526 13.2164L5.92737 14.5558C7.01318 15.2927 8.58887 16.314 9.42835 16.8255C10.2681 17.337 12.4492 18.7073 14.2753 19.8704L17.5954 21.9852V25.1172C17.5954 26.8399 17.6819 28.2117 17.7875 28.1654C18.4933 27.8566 21.1428 26.3505 21.6342 25.9785C22.1667 25.5756 22.2391 25.2895 22.3095 23.3054C22.3819 21.2646 22.3411 21.0405 21.8081 20.5529C21.4889 20.261 19.1196 18.6945 16.5428 17.0715C13.9659 15.4488 11.1119 13.634 10.2003 13.0391L8.54271 11.9572L8.47106 8.87501C8.43179 7.17954 8.31703 5.79864 8.21605 5.80594C8.11532 5.81324 7.43394 6.14292 6.70233 6.53833Z" fill="white"/>
<path fill-rule="evenodd" clip-rule="evenodd" d="M11.9853 4.77612V9.55223L12.9204 10.1799C13.4348 10.5249 13.9313 10.7611 14.0236 10.7047C14.1159 10.6483 14.1447 8.21667 14.0873 5.30123C14.0129 1.52446 14.0641 0 14.2658 0C14.593 0 21.9349 3.82236 23.8806 5.00556C25.7182 6.12328 26.0479 6.91762 25.9561 10.0056L25.8831 12.4667H24.2256H22.5681L22.4921 10.5841C22.4398 9.29081 22.2873 8.5612 22.0047 8.25293C21.5592 7.76661 18.208 5.79259 17.828 5.79259C17.6982 5.79259 17.5954 7.45708 17.5954 9.55753V13.3225L18.4242 13.9345C18.8802 14.2709 20.4579 15.2977 21.9305 16.216C26.2552 18.9131 25.8694 18.3663 25.9693 21.9396C26.117 27.2222 25.839 27.8735 22.6956 29.6115C17.6643 32.3932 14.4851 33.999 14.2691 33.8673C14.1276 33.7809 14.0253 31.6827 14.0253 28.8688V24.0191L13.1242 23.5947C12.6284 23.3613 12.1694 23.1704 12.1041 23.1704C12.0389 23.1704 11.9853 25.607 11.9853 28.5852C11.9853 31.5633 11.8935 34 11.781 34C11.6688 34 10.0911 33.1966 8.2747 32.2146C6.45855 31.2327 4.22673 30.0361 3.31508 29.5558C0.542655 28.0948 0.00408537 27.1285 0.00153531 23.6111L0 21.6593H1.91255H3.8251V23.5353C3.8251 25.3582 3.84856 25.4287 4.65387 26.0251C5.10982 26.3626 6.14234 27.0025 6.94892 27.4471L8.41521 28.2555V24.3558V20.4562L4.90887 18.2474C-0.238686 15.0048 0.141528 15.5614 0.0545704 11.1394C-0.0507472 5.78403 -0.34451 6.15778 6.86579 2.47243C8.74851 1.5101 10.5239 0.560119 10.8112 0.361407C11.9481 -0.424874 11.9853 -0.285094 11.9853 4.77612ZM4.5896 7.80791C5.0198 7.50519 5.97046 6.93399 6.70233 6.53833C7.43394 6.14292 8.11532 5.81324 8.21605 5.80594C8.31703 5.79864 8.43179 7.17954 8.47106 8.87501L8.54271 11.9572L10.2003 13.0391C11.1119 13.634 13.9659 15.4488 16.5428 17.0715C19.1196 18.6945 21.4889 20.261 21.8081 20.5529C22.3411 21.0405 22.3819 21.2646 22.3095 23.3054C22.2391 25.2895 22.1667 25.5756 21.6342 25.9785C21.1428 26.3505 18.4933 27.8566 17.7875 28.1654C17.6819 28.2117 17.5954 26.8399 17.5954 25.1172V21.9852L14.2753 19.8704C12.4492 18.7073 10.2681 17.337 9.42835 16.8255C8.58887 16.314 7.01318 15.2927 5.92737 14.5558L3.9526 13.2164L3.87992 10.7871L3.80724 8.35796L4.5896 7.80791Z" fill="white"/>
<path d="M45.1031 24.6719C46.2385 24.6719 47.1604 24.5469 47.8688 24.2969C49.2125 23.8177 49.8844 22.9271 49.8844 21.625C49.8844 20.8646 49.551 20.276 48.8844 19.8594C48.2177 19.4531 47.1708 19.0938 45.7438 18.7812L43.3063 18.2344C40.9104 17.6927 39.2542 17.1042 38.3375 16.4688C36.7854 15.4062 36.0094 13.7448 36.0094 11.4844C36.0094 9.42188 36.7594 7.70833 38.2594 6.34375C39.7594 4.97917 41.9625 4.29688 44.8688 4.29688C47.2958 4.29688 49.3635 4.94271 51.0719 6.23438C52.7906 7.51562 53.6917 9.38021 53.775 11.8281H49.15C49.0667 10.4427 48.4625 9.45833 47.3375 8.875C46.5875 8.48958 45.6552 8.29688 44.5406 8.29688C43.301 8.29688 42.3115 8.54688 41.5719 9.04688C40.8323 9.54688 40.4625 10.2448 40.4625 11.1406C40.4625 11.9635 40.8271 12.5781 41.5563 12.9844C42.025 13.2552 43.025 13.5729 44.5563 13.9375L48.525 14.8906C50.2646 15.3073 51.5771 15.8646 52.4625 16.5625C53.8375 17.6458 54.525 19.2135 54.525 21.2656C54.525 23.3698 53.7177 25.1198 52.1031 26.5156C50.499 27.901 48.2281 28.5938 45.2906 28.5938C42.2906 28.5938 39.9313 27.9115 38.2125 26.5469C36.4938 25.1719 35.6344 23.2865 35.6344 20.8906H40.2281C40.374 21.9427 40.6604 22.7292 41.0875 23.25C41.8688 24.1979 43.2073 24.6719 45.1031 24.6719ZM72.1325 27.4375C70.8617 28.2188 69.2992 28.6094 67.445 28.6094C64.3929 28.6094 61.8929 27.5521 59.945 25.4375C57.9138 23.3125 56.8981 20.4062 56.8981 16.7188C56.8981 12.9896 57.9242 10 59.9763 7.75C62.0283 5.5 64.7419 4.375 68.1169 4.375C71.044 4.375 73.3929 5.11979 75.1638 6.60938C76.945 8.08854 77.9658 9.9375 78.2263 12.1562H73.4919C73.1273 10.5833 72.2367 9.48438 70.82 8.85938C70.0283 8.51562 69.1481 8.34375 68.1794 8.34375C66.3252 8.34375 64.7992 9.04688 63.6013 10.4531C62.4138 11.849 61.82 13.9531 61.82 16.7656C61.82 19.599 62.4658 21.6042 63.7575 22.7812C65.0492 23.9583 66.5179 24.5469 68.1638 24.5469C69.7783 24.5469 71.1013 24.0833 72.1325 23.1562C73.1638 22.2188 73.7992 20.9948 74.0388 19.4844H68.7106V15.6406H78.3044V28H75.1169L74.6325 25.125C73.7054 26.2188 72.8721 26.9896 72.1325 27.4375ZM91.1931 24.6719C92.3285 24.6719 93.2504 24.5469 93.9588 24.2969C95.3025 23.8177 95.9744 22.9271 95.9744 21.625C95.9744 20.8646 95.641 20.276 94.9744 19.8594C94.3077 19.4531 93.2608 19.0938 91.8338 18.7812L89.3963 18.2344C87.0004 17.6927 85.3442 17.1042 84.4275 16.4688C82.8754 15.4062 82.0994 13.7448 82.0994 11.4844C82.0994 9.42188 82.8494 7.70833 84.3494 6.34375C85.8494 4.97917 88.0525 4.29688 90.9588 4.29688C93.3858 4.29688 95.4535 4.94271 97.1619 6.23438C98.8806 7.51562 99.7817 9.38021 99.865 11.8281H95.24C95.1567 10.4427 94.5525 9.45833 93.4275 8.875C92.6775 8.48958 91.7452 8.29688 90.6306 8.29688C89.391 8.29688 88.4015 8.54688 87.6619 9.04688C86.9223 9.54688 86.5525 10.2448 86.5525 11.1406C86.5525 11.9635 86.9171 12.5781 87.6463 12.9844C88.115 13.2552 89.115 13.5729 90.6463 13.9375L94.615 14.8906C96.3546 15.3073 97.6671 15.8646 98.5525 16.5625C99.9275 17.6458 100.615 19.2135 100.615 21.2656C100.615 23.3698 99.8077 25.1198 98.1931 26.5156C96.589 27.901 94.3181 28.5938 91.3806 28.5938C88.3806 28.5938 86.0213 27.9115 84.3025 26.5469C82.5838 25.1719 81.7244 23.2865 81.7244 20.8906H86.3181C86.464 21.9427 86.7504 22.7292 87.1775 23.25C87.9588 24.1979 89.2973 24.6719 91.1931 24.6719ZM117.33 28H112.846V4.96875H119.846L124.033 23.0781L128.189 4.96875H135.111V28H130.627V12.4219C130.627 11.974 130.632 11.349 130.643 10.5469C130.653 9.73438 130.658 9.10938 130.658 8.67188L126.299 28H121.627L117.299 8.67188C117.299 9.10938 117.304 9.73438 117.314 10.5469C117.325 11.349 117.33 11.974 117.33 12.4219V28ZM139.781 12.8125C140.958 11.3125 142.979 10.5625 145.844 10.5625C147.708 10.5625 149.365 10.9323 150.812 11.6719C152.26 12.4115 152.984 13.8073 152.984 15.8594V23.6719C152.984 24.2135 152.995 24.8698 153.016 25.6406C153.047 26.224 153.135 26.6198 153.281 26.8281C153.427 27.0365 153.646 27.2083 153.938 27.3438V28H149.094C148.958 27.6562 148.865 27.3333 148.812 27.0312C148.76 26.7292 148.719 26.3854 148.688 26C148.073 26.6667 147.365 27.2344 146.562 27.7031C145.604 28.2552 144.521 28.5312 143.312 28.5312C141.771 28.5312 140.495 28.0938 139.484 27.2188C138.484 26.3333 137.984 25.0833 137.984 23.4688C137.984 21.375 138.792 19.8594 140.406 18.9219C141.292 18.4115 142.594 18.0469 144.312 17.8281L145.828 17.6406C146.651 17.5365 147.24 17.4062 147.594 17.25C148.229 16.9792 148.547 16.5573 148.547 15.9844C148.547 15.2865 148.302 14.8073 147.812 14.5469C147.333 14.276 146.625 14.1406 145.688 14.1406C144.635 14.1406 143.891 14.401 143.453 14.9219C143.141 15.3073 142.932 15.8281 142.828 16.4844H138.531C138.625 14.9948 139.042 13.7708 139.781 12.8125ZM143.094 24.7812C143.51 25.125 144.021 25.2969 144.625 25.2969C145.583 25.2969 146.464 25.0156 147.266 24.4531C148.078 23.8906 148.5 22.8646 148.531 21.375V19.7188C148.25 19.8958 147.964 20.0417 147.672 20.1562C147.391 20.2604 147 20.3594 146.5 20.4531L145.5 20.6406C144.562 20.8073 143.891 21.0104 143.484 21.25C142.797 21.6562 142.453 22.2865 142.453 23.1406C142.453 23.901 142.667 24.4479 143.094 24.7812ZM164.889 14.2656C163.378 14.2656 162.342 14.9062 161.779 16.1875C161.488 16.8646 161.342 17.7292 161.342 18.7812V28H156.904V11H161.201V13.4844C161.774 12.6094 162.316 11.9792 162.826 11.5938C163.743 10.9062 164.904 10.5625 166.311 10.5625C168.071 10.5625 169.509 11.026 170.623 11.9531C171.748 12.8698 172.311 14.3958 172.311 16.5312V28H167.748V17.6406C167.748 16.7448 167.628 16.0573 167.389 15.5781C166.951 14.7031 166.118 14.2656 164.889 14.2656ZM176.996 12.8125C178.173 11.3125 180.194 10.5625 183.059 10.5625C184.923 10.5625 186.58 10.9323 188.027 11.6719C189.475 12.4115 190.199 13.8073 190.199 15.8594V23.6719C190.199 24.2135 190.21 24.8698 190.231 25.6406C190.262 26.224 190.35 26.6198 190.496 26.8281C190.642 27.0365 190.861 27.2083 191.152 27.3438V28H186.309C186.173 27.6562 186.08 27.3333 186.027 27.0312C185.975 26.7292 185.934 26.3854 185.902 26C185.288 26.6667 184.58 27.2344 183.777 27.7031C182.819 28.2552 181.736 28.5312 180.527 28.5312C178.986 28.5312 177.71 28.0938 176.699 27.2188C175.699 26.3333 175.199 25.0833 175.199 23.4688C175.199 21.375 176.007 19.8594 177.621 18.9219C178.507 18.4115 179.809 18.0469 181.527 17.8281L183.043 17.6406C183.866 17.5365 184.455 17.4062 184.809 17.25C185.444 16.9792 185.762 16.5573 185.762 15.9844C185.762 15.2865 185.517 14.8073 185.027 14.5469C184.548 14.276 183.84 14.1406 182.902 14.1406C181.85 14.1406 181.106 14.401 180.668 14.9219C180.356 15.3073 180.147 15.8281 180.043 16.4844H175.746C175.84 14.9948 176.257 13.7708 176.996 12.8125ZM180.309 24.7812C180.725 25.125 181.236 25.2969 181.84 25.2969C182.798 25.2969 183.679 25.0156 184.481 24.4531C185.293 23.8906 185.715 22.8646 185.746 21.375V19.7188C185.465 19.8958 185.179 20.0417 184.887 20.1562C184.606 20.2604 184.215 20.3594 183.715 20.4531L182.715 20.6406C181.777 20.8073 181.106 21.0104 180.699 21.25C180.012 21.6562 179.668 22.2865 179.668 23.1406C179.668 23.901 179.882 24.4479 180.309 24.7812ZM198.901 30.9844C199.38 31.3906 200.187 31.5938 201.323 31.5938C202.927 31.5938 204 31.0573 204.541 29.9844C204.895 29.2969 205.073 28.1406 205.073 26.5156V25.4219C204.645 26.151 204.187 26.6979 203.698 27.0625C202.812 27.7396 201.661 28.0781 200.244 28.0781C198.057 28.0781 196.307 27.3125 194.994 25.7812C193.692 24.2396 193.041 22.1562 193.041 19.5312C193.041 17 193.671 14.875 194.932 13.1562C196.192 11.4271 197.979 10.5625 200.291 10.5625C201.145 10.5625 201.89 10.6927 202.526 10.9531C203.609 11.401 204.484 12.224 205.151 13.4219V10.9688H209.479V27.125C209.479 29.3229 209.109 30.9792 208.369 32.0938C207.099 34.0104 204.661 34.9688 201.057 34.9688C198.88 34.9688 197.104 34.5417 195.729 33.6875C194.354 32.8333 193.593 31.5573 193.448 29.8594H198.291C198.416 30.3802 198.619 30.7552 198.901 30.9844ZM198.151 22.1875C198.755 23.625 199.838 24.3438 201.401 24.3438C202.442 24.3438 203.323 23.9531 204.041 23.1719C204.76 22.3802 205.119 21.125 205.119 19.4062C205.119 17.7917 204.776 16.5625 204.088 15.7188C203.411 14.875 202.5 14.4531 201.354 14.4531C199.791 14.4531 198.713 15.1875 198.119 16.6562C197.807 17.4375 197.651 18.401 197.651 19.5469C197.651 20.5365 197.817 21.4167 198.151 22.1875ZM228.149 23C228.034 24.0104 227.508 25.0365 226.571 26.0781C225.112 27.7344 223.071 28.5625 220.446 28.5625C218.279 28.5625 216.367 27.8646 214.711 26.4688C213.055 25.0729 212.227 22.8021 212.227 19.6562C212.227 16.7083 212.972 14.4479 214.461 12.875C215.961 11.3021 217.904 10.5156 220.289 10.5156C221.706 10.5156 222.982 10.7812 224.117 11.3125C225.253 11.8438 226.19 12.6823 226.93 13.8281C227.597 14.8385 228.029 16.0104 228.227 17.3438C228.341 18.125 228.388 19.25 228.367 20.7188H216.711C216.774 22.4271 217.31 23.625 218.321 24.3125C218.935 24.7396 219.675 24.9531 220.539 24.9531C221.456 24.9531 222.201 24.6927 222.774 24.1719C223.086 23.8906 223.362 23.5 223.602 23H228.149ZM223.742 17.7812C223.67 16.6042 223.31 15.7135 222.664 15.1094C222.029 14.4948 221.237 14.1875 220.289 14.1875C219.258 14.1875 218.456 14.5104 217.883 15.1562C217.321 15.8021 216.966 16.6771 216.821 17.7812H223.742ZM239.866 15.0781C238.074 15.0781 236.871 15.6615 236.256 16.8281C235.913 17.4844 235.741 18.4948 235.741 19.8594V28H231.256V10.9688H235.506V13.9375C236.194 12.8021 236.793 12.026 237.303 11.6094C238.136 10.9115 239.22 10.5625 240.553 10.5625C240.636 10.5625 240.704 10.5677 240.756 10.5781C240.819 10.5781 240.949 10.5833 241.147 10.5938V15.1562C240.866 15.125 240.616 15.1042 240.397 15.0938C240.178 15.0833 240.001 15.0781 239.866 15.0781Z" fill="white"/>
</svg>
