<svg width="84" height="74" viewBox="0 0 84 74" fill="none" xmlns="http://www.w3.org/2000/svg">
<path fill-rule="evenodd" clip-rule="evenodd" d="M41.9438 0.599853C41.9243 0.663812 41.8181 1.02841 41.7078 1.41022C41.1767 3.24886 40.3311 4.89404 38.4329 7.7814C37.7213 8.86378 37.0515 10.1999 36.7268 11.1844C36.448 12.0295 36.3851 13.6992 36.5958 14.6558C36.8093 15.625 37.3504 16.6633 38.0759 17.496C39.4423 19.0643 40.2099 20.5369 40.717 22.5626L40.9264 23.3992V31.3476V39.296L40.7183 40.0211C40.4603 40.9199 40.0817 41.6829 39.6327 42.2083C39.3933 42.4885 39.2676 42.5755 39.2185 42.4953C39.1797 42.4319 39.1427 38.8266 39.1361 34.4835C39.125 27.0095 39.0923 25.8962 38.8475 24.6542C38.528 23.0334 37.7136 20.9331 36.8271 19.4434C35.3309 16.9295 32.9187 14.6648 30.3139 13.3287C28.9472 12.6277 28.2896 12.3669 27.0262 12.0248C25.5829 11.6341 24.7346 11.4716 23.5027 11.3498C22.2762 11.2286 18.5959 11.2868 18.235 11.433L18.0048 11.5264L18.281 11.5897C19.3502 11.8349 20.2704 12.1874 20.8551 12.5756C22.5494 13.7005 23.5948 15.4224 24.2378 18.1468C24.4093 18.8737 24.43 19.3838 24.4957 24.5148C24.5523 28.9411 24.5978 30.2846 24.7161 31.0223C25.239 34.2839 26.5557 37.2169 28.5611 39.5878C31.2365 42.7507 34.9994 44.8006 39.1313 45.346C40.5207 45.5294 43.4759 45.5539 44.7927 45.3929C47.3767 45.077 49.9789 44.0991 52.2491 42.5909C53.506 41.7558 55.5363 39.7419 56.4611 38.4129C57.4941 36.9283 58.3904 35.0506 58.8709 33.3641C59.4622 31.2894 59.4955 30.8771 59.5682 24.7472C59.6346 19.1376 59.6355 19.1203 59.8716 18.1275C60.1312 17.036 60.4684 16.0301 60.8154 15.3114C61.3728 14.157 62.7033 12.7664 63.7359 12.2587C64.2586 12.0018 65.4678 11.6393 65.8023 11.6393C66.0932 11.6393 66.064 11.4884 65.7581 11.4109C65.2723 11.2876 61.8275 11.2464 60.7 11.3504C56.9176 11.6989 53.6584 12.9734 50.9603 15.1593C48.1228 17.458 45.9721 21.0147 45.3033 24.5144C44.997 26.1174 44.9314 28.0529 44.9311 35.5078C44.9309 39.5169 44.8956 42.5963 44.8499 42.5963C44.7378 42.5963 44.0704 41.6992 43.847 41.2483C43.1755 39.893 43.0951 38.8408 43.0974 31.4406C43.1 23.1087 43.1753 22.392 44.284 20.1432C44.8337 19.0281 45.1169 18.6019 46.187 17.2782C46.7932 16.5285 47.0883 15.9736 47.4308 14.9395C47.6146 14.3846 47.6447 14.1176 47.635 13.1267C47.625 12.0946 47.5922 11.8696 47.3415 11.1137C46.9593 9.9614 46.5594 9.18636 45.521 7.58525C43.6315 4.67176 42.8895 3.21846 42.3109 1.29708C42.0666 0.485786 42.0109 0.379994 41.9438 0.599853Z" fill="black"/>
<path d="M2.04634 66.324H3.21634C4.03234 66.324 4.75834 66.318 5.39434 66.306C6.04234 66.282 6.66034 66.252 7.24834 66.216C7.84834 66.168 8.45434 66.096 9.06634 66L9.26434 67.926C8.64034 68.034 8.02234 68.118 7.41034 68.178C6.79834 68.226 6.15634 68.256 5.48434 68.268C4.81234 68.28 4.05634 68.286 3.21634 68.286H2.04634V66.324ZM2.04634 57.144H8.77834V59.052H4.33234V67.116H2.04634V57.144ZM3.66634 61.518H8.45434V63.354H3.66634V61.518ZM13.5303 55.416H15.8163V72.084H13.5303V55.416ZM11.5323 61.878H14.3043V63.804H11.5323V61.878ZM9.94834 55.686H12.1803V71.346H9.94834V55.686ZM19.8389 56.136H30.3869V58.044H19.8389V56.136ZM17.9849 61.878H33.0869V63.804H17.9849V61.878ZM24.3209 63.228H26.6969V66.72H24.3209V63.228ZM28.9469 56.136H31.3049V57.468C31.3049 58.188 31.2809 58.98 31.2329 59.844C31.1969 60.696 31.0469 61.668 30.7829 62.76L28.4429 62.544C28.6949 61.464 28.8389 60.528 28.8749 59.736C28.9229 58.932 28.9469 58.176 28.9469 57.468V56.136ZM19.4969 66.144H31.3409V72.102H28.9469V68.034H19.4969V66.144ZM38.9275 56.568C39.7795 56.568 40.5295 56.814 41.1775 57.306C41.8375 57.786 42.3535 58.476 42.7255 59.376C43.1095 60.264 43.3015 61.314 43.3015 62.526C43.3015 63.75 43.1095 64.812 42.7255 65.712C42.3535 66.6 41.8375 67.29 41.1775 67.782C40.5295 68.262 39.7795 68.502 38.9275 68.502C38.0755 68.502 37.3195 68.262 36.6595 67.782C35.9995 67.29 35.4775 66.6 35.0935 65.712C34.7215 64.812 34.5355 63.75 34.5355 62.526C34.5355 61.314 34.7215 60.264 35.0935 59.376C35.4775 58.476 35.9995 57.786 36.6595 57.306C37.3195 56.814 38.0755 56.568 38.9275 56.568ZM38.9275 58.746C38.5195 58.746 38.1535 58.89 37.8295 59.178C37.5175 59.466 37.2715 59.892 37.0915 60.456C36.9235 61.008 36.8395 61.698 36.8395 62.526C36.8395 63.342 36.9235 64.038 37.0915 64.614C37.2715 65.178 37.5175 65.604 37.8295 65.892C38.1535 66.18 38.5195 66.324 38.9275 66.324C39.3355 66.324 39.6955 66.18 40.0075 65.892C40.3195 65.604 40.5595 65.178 40.7275 64.614C40.9075 64.038 40.9975 63.342 40.9975 62.526C40.9975 61.698 40.9075 61.008 40.7275 60.456C40.5595 59.892 40.3195 59.466 40.0075 59.178C39.6955 58.89 39.3355 58.746 38.9275 58.746ZM46.8655 59.304H49.7995V61.266H46.8655V59.304ZM46.8655 64.182H49.7995V66.144H46.8655V64.182ZM45.1015 55.434H47.5135V72.102H45.1015V55.434ZM53.9301 56.424H55.8021V58.35C55.8021 59.298 55.6701 60.222 55.4061 61.122C55.1421 62.01 54.7281 62.808 54.1641 63.516C53.6001 64.224 52.8621 64.77 51.9501 65.154L50.7081 63.318C51.4761 62.97 52.0941 62.532 52.5621 62.004C53.0421 61.464 53.3901 60.876 53.6061 60.24C53.8221 59.604 53.9301 58.974 53.9301 58.35V56.424ZM54.3801 56.424H56.2521V58.35C56.2521 58.95 56.3541 59.538 56.5581 60.114C56.7621 60.678 57.0921 61.194 57.5481 61.662C58.0161 62.13 58.6101 62.514 59.3301 62.814L58.0701 64.632C57.2061 64.284 56.4981 63.792 55.9461 63.156C55.4061 62.508 55.0101 61.776 54.7581 60.96C54.5061 60.132 54.3801 59.262 54.3801 58.35V56.424ZM62.8581 55.434H65.1441V65.622H62.8581V55.434ZM60.8601 59.484H63.5061V61.41H60.8601V59.484ZM59.3481 55.74H61.5801V65.1H59.3481V55.74ZM59.4921 65.856C60.6561 65.856 61.6641 65.982 62.5161 66.234C63.3801 66.474 64.0461 66.828 64.5141 67.296C64.9821 67.764 65.2161 68.322 65.2161 68.97C65.2161 69.63 64.9821 70.194 64.5141 70.662C64.0461 71.13 63.3801 71.484 62.5161 71.724C61.6641 71.976 60.6561 72.102 59.4921 72.102C58.3281 72.102 57.3141 71.976 56.4501 71.724C55.5861 71.484 54.9201 71.13 54.4521 70.662C53.9841 70.194 53.7501 69.63 53.7501 68.97C53.7501 68.322 53.9841 67.764 54.4521 67.296C54.9201 66.828 55.5861 66.474 56.4501 66.234C57.3141 65.982 58.3281 65.856 59.4921 65.856ZM59.4921 67.656C58.4121 67.656 57.5781 67.764 56.9901 67.98C56.4141 68.196 56.1261 68.526 56.1261 68.97C56.1261 69.414 56.4141 69.75 56.9901 69.978C57.5781 70.194 58.4121 70.302 59.4921 70.302C60.2001 70.302 60.8001 70.254 61.2921 70.158C61.7961 70.05 62.1741 69.9 62.4261 69.708C62.6901 69.516 62.8221 69.27 62.8221 68.97C62.8221 68.526 62.5341 68.196 61.9581 67.98C61.3821 67.764 60.5601 67.656 59.4921 67.656ZM71.2727 65.298H73.6667V67.98H71.2727V65.298ZM78.2747 55.434H80.6687V72.102H78.2747V55.434ZM79.8407 62.202H82.7747V64.164H79.8407V62.202ZM67.5287 69.33L67.2407 67.386C68.2007 67.386 69.2507 67.38 70.3907 67.368C71.5427 67.356 72.7187 67.314 73.9187 67.242C75.1307 67.17 76.3007 67.062 77.4287 66.918L77.6087 68.646C76.4447 68.862 75.2627 69.024 74.0627 69.132C72.8627 69.228 71.7047 69.288 70.5887 69.312C69.4847 69.324 68.4647 69.33 67.5287 69.33ZM67.5467 57.252H77.3567V59.124H67.5467V57.252ZM72.4607 59.79C73.2647 59.79 73.9727 59.922 74.5847 60.186C75.1967 60.45 75.6767 60.816 76.0247 61.284C76.3727 61.752 76.5467 62.298 76.5467 62.922C76.5467 63.534 76.3727 64.08 76.0247 64.56C75.6767 65.028 75.1967 65.394 74.5847 65.658C73.9727 65.922 73.2647 66.054 72.4607 66.054C71.6687 66.054 70.9667 65.922 70.3547 65.658C69.7427 65.394 69.2627 65.028 68.9147 64.56C68.5667 64.08 68.3927 63.534 68.3927 62.922C68.3927 62.298 68.5667 61.752 68.9147 61.284C69.2627 60.816 69.7427 60.45 70.3547 60.186C70.9667 59.922 71.6687 59.79 72.4607 59.79ZM72.4607 61.59C71.9207 61.59 71.4827 61.71 71.1467 61.95C70.8227 62.178 70.6607 62.502 70.6607 62.922C70.6607 63.354 70.8227 63.684 71.1467 63.912C71.4827 64.14 71.9207 64.254 72.4607 64.254C73.0127 64.254 73.4507 64.14 73.7747 63.912C74.1107 63.684 74.2787 63.354 74.2787 62.922C74.2787 62.502 74.1107 62.178 73.7747 61.95C73.4507 61.71 73.0127 61.59 72.4607 61.59ZM71.2727 55.506H73.6667V58.656H71.2727V55.506Z" fill="black"/>
</svg>
