<svg width="264" height="36" viewBox="0 0 264 36" fill="none" xmlns="http://www.w3.org/2000/svg">
<path fill-rule="evenodd" clip-rule="evenodd" d="M17.4555 1.04566C17.4413 1.09398 17.3639 1.36946 17.2835 1.65793C16.8962 3.04713 16.2796 4.29015 14.8955 6.47172C14.3766 7.28951 13.8882 8.29899 13.6514 9.0429C13.4482 9.68137 13.4023 10.9429 13.5559 11.6657C13.7116 12.398 14.1062 13.1825 14.6352 13.8117C15.6315 14.9966 16.1912 16.1092 16.5609 17.6397L16.7136 18.2719V24.2773V30.2828L16.5619 30.8306C16.3738 31.5097 16.0977 32.0862 15.7703 32.4832C15.5958 32.6949 15.5041 32.7606 15.4683 32.7C15.44 32.6521 15.413 29.9281 15.4082 26.6466C15.4001 20.9996 15.3763 20.1585 15.1978 19.2201C14.9648 17.9955 14.371 16.4085 13.7246 15.283C12.6336 13.3836 10.8747 11.6725 8.97536 10.663C7.97885 10.1334 7.49932 9.93634 6.57806 9.67786C5.5257 9.38265 4.9071 9.25987 4.00886 9.16785C3.11458 9.07626 0.430997 9.12023 0.167807 9.23072L0 9.30124L0.201368 9.34907C0.981002 9.53436 1.65197 9.80071 2.07833 10.094C3.31373 10.9439 4.07605 12.2449 4.5449 14.3033C4.66995 14.8525 4.68506 15.238 4.73291 19.1147C4.77419 22.459 4.80735 23.4741 4.89361 24.0315C5.27493 26.4958 6.235 28.7119 7.69727 30.5032C9.64807 32.8929 12.3919 34.4418 15.4047 34.8539C16.4178 34.9925 18.5727 35.0109 19.5328 34.8893C21.417 34.6506 23.3145 33.9118 24.9698 32.7722C25.8863 32.1412 27.3667 30.6196 28.041 29.6155C28.7943 28.4939 29.4478 27.0751 29.7982 25.8009C30.2293 24.2333 30.2536 23.9218 30.3066 19.2903C30.3551 15.0519 30.3557 15.0389 30.5278 14.2888C30.7171 13.4641 30.963 12.7041 31.2161 12.161C31.6225 11.2888 32.5926 10.2382 33.3456 9.85458C33.7267 9.66044 34.6084 9.38658 34.8523 9.38658C35.0644 9.38658 35.0431 9.27258 34.8201 9.214C34.4659 9.12086 31.954 9.08975 31.1319 9.16828C28.3739 9.4316 25.9974 10.3946 24.0301 12.0461C21.9611 13.7829 20.3928 16.4702 19.9051 19.1144C19.6818 20.3256 19.634 21.788 19.6338 27.4205C19.6336 30.4497 19.6079 32.7763 19.5746 32.7763C19.4928 32.7763 19.0062 32.0985 18.8433 31.7578C18.3536 30.7338 18.295 29.9388 18.2967 24.3476C18.2986 18.0524 18.3535 17.5108 19.1619 15.8117C19.5628 14.9692 19.7692 14.6472 20.5495 13.6471C20.9915 13.0806 21.2067 12.6613 21.4564 11.8801C21.5905 11.4608 21.6124 11.2591 21.6054 10.5104C21.5981 9.73054 21.5742 9.56056 21.3913 8.98945C21.1126 8.11883 20.821 7.53324 20.0639 6.32351C18.6861 4.12221 18.1451 3.02416 17.7232 1.57245C17.545 0.959476 17.5044 0.879543 17.4555 1.04566Z" fill="white"/>
<path d="M62.2144 5.93896V10.0171H55.3238V28.9702H50.48V10.0171H43.5581V5.93896H62.2144ZM62.8688 13.7827C64.0458 12.2827 66.0667 11.5327 68.9313 11.5327C70.7958 11.5327 72.4521 11.9025 73.9 12.6421C75.3479 13.3817 76.0719 14.7775 76.0719 16.8296V24.6421C76.0719 25.1838 76.0823 25.84 76.1031 26.6108C76.1344 27.1942 76.2229 27.59 76.3688 27.7983C76.5146 28.0067 76.7333 28.1785 77.025 28.314V28.9702H72.1813C72.0458 28.6265 71.9521 28.3035 71.9 28.0015C71.8479 27.6994 71.8063 27.3556 71.775 26.9702C71.1604 27.6369 70.4521 28.2046 69.65 28.6733C68.6917 29.2254 67.6083 29.5015 66.4 29.5015C64.8583 29.5015 63.5823 29.064 62.5719 28.189C61.5719 27.3035 61.0719 26.0535 61.0719 24.439C61.0719 22.3452 61.8792 20.8296 63.4938 19.8921C64.3792 19.3817 65.6813 19.0171 67.4 18.7983L68.9156 18.6108C69.7385 18.5067 70.3271 18.3765 70.6813 18.2202C71.3167 17.9494 71.6344 17.5275 71.6344 16.9546C71.6344 16.2567 71.3896 15.7775 70.9 15.5171C70.4208 15.2463 69.7125 15.1108 68.775 15.1108C67.7229 15.1108 66.9781 15.3713 66.5406 15.8921C66.2281 16.2775 66.0198 16.7983 65.9156 17.4546H61.6188C61.7125 15.965 62.1292 14.741 62.8688 13.7827ZM66.1813 25.7515C66.5979 26.0952 67.1083 26.2671 67.7125 26.2671C68.6708 26.2671 69.551 25.9858 70.3531 25.4233C71.1656 24.8608 71.5875 23.8348 71.6188 22.3452V20.689C71.3375 20.866 71.051 21.0119 70.7594 21.1265C70.4781 21.2306 70.0875 21.3296 69.5875 21.4233L68.5875 21.6108C67.65 21.7775 66.9781 21.9806 66.5719 22.2202C65.8844 22.6265 65.5406 23.2567 65.5406 24.1108C65.5406 24.8713 65.7542 25.4181 66.1813 25.7515ZM94.5388 23.9702C94.4242 24.9806 93.8981 26.0067 92.9606 27.0483C91.5023 28.7046 89.4606 29.5327 86.8356 29.5327C84.669 29.5327 82.7575 28.8348 81.1013 27.439C79.445 26.0431 78.6169 23.7723 78.6169 20.6265C78.6169 17.6785 79.3617 15.4181 80.8513 13.8452C82.3513 12.2723 84.294 11.4858 86.6794 11.4858C88.096 11.4858 89.3721 11.7515 90.5075 12.2827C91.6429 12.814 92.5804 13.6525 93.32 14.7983C93.9867 15.8088 94.419 16.9806 94.6169 18.314C94.7315 19.0952 94.7783 20.2202 94.7575 21.689H83.1013C83.1638 23.3973 83.7002 24.5952 84.7106 25.2827C85.3252 25.7098 86.0648 25.9233 86.9294 25.9233C87.846 25.9233 88.5908 25.6629 89.1638 25.1421C89.4763 24.8608 89.7523 24.4702 89.9919 23.9702H94.5388ZM90.1325 18.7515C90.0596 17.5744 89.7002 16.6838 89.0544 16.0796C88.419 15.465 87.6273 15.1577 86.6794 15.1577C85.6481 15.1577 84.846 15.4806 84.2731 16.1265C83.7106 16.7723 83.3565 17.6473 83.2106 18.7515H90.1325ZM102.506 31.9546C102.985 32.3608 103.792 32.564 104.928 32.564C106.532 32.564 107.605 32.0275 108.146 30.9546C108.5 30.2671 108.678 29.1108 108.678 27.4858V26.3921C108.25 27.1213 107.792 27.6681 107.303 28.0327C106.417 28.7098 105.266 29.0483 103.849 29.0483C101.662 29.0483 99.9119 28.2827 98.5994 26.7515C97.2973 25.2098 96.6463 23.1265 96.6463 20.5015C96.6463 17.9702 97.2765 15.8452 98.5369 14.1265C99.7973 12.3973 101.584 11.5327 103.896 11.5327C104.75 11.5327 105.495 11.6629 106.131 11.9233C107.214 12.3713 108.089 13.1942 108.756 14.3921V11.939H113.084V28.0952C113.084 30.2931 112.714 31.9494 111.974 33.064C110.704 34.9806 108.266 35.939 104.662 35.939C102.485 35.939 100.709 35.5119 99.3338 34.6577C97.9588 33.8035 97.1983 32.5275 97.0525 30.8296H101.896C102.021 31.3504 102.224 31.7254 102.506 31.9546ZM101.756 23.1577C102.36 24.5952 103.443 25.314 105.006 25.314C106.047 25.314 106.928 24.9233 107.646 24.1421C108.365 23.3504 108.724 22.0952 108.724 20.3765C108.724 18.7619 108.381 17.5327 107.693 16.689C107.016 15.8452 106.105 15.4233 104.959 15.4233C103.396 15.4233 102.318 16.1577 101.724 17.6265C101.412 18.4077 101.256 19.3713 101.256 20.5171C101.256 21.5067 101.422 22.3869 101.756 23.1577ZM128.098 26.564C128.056 26.616 127.952 26.7723 127.785 27.0327C127.618 27.2931 127.42 27.5223 127.191 27.7202C126.493 28.3452 125.816 28.7723 125.16 29.0015C124.514 29.2306 123.754 29.3452 122.879 29.3452C120.358 29.3452 118.66 28.439 117.785 26.6265C117.295 25.6265 117.051 24.1525 117.051 22.2046V11.939H121.613V22.2046C121.613 23.1733 121.728 23.9025 121.957 24.3921C122.363 25.2567 123.16 25.689 124.348 25.689C125.868 25.689 126.91 25.0744 127.473 23.8452C127.764 23.1785 127.91 22.2983 127.91 21.2046V11.939H132.426V28.9702H128.098V26.564ZM152.283 28.9702H146.908L142.83 21.689L140.986 23.6108V28.9702H136.611V6.01709H140.986V18.4233L146.533 12.0171H152.049L146.096 18.5327L152.283 28.9702ZM179.904 10.0171H168.358V15.314H178.467V19.314H168.358V28.9702H163.576V5.97021H179.904V10.0171ZM182.793 5.93896H187.246V28.9702H182.793V5.93896ZM205.729 14.0952C207.166 15.8973 207.885 18.0275 207.885 20.4858C207.885 22.9858 207.166 25.1265 205.729 26.9077C204.291 28.6785 202.109 29.564 199.182 29.564C196.255 29.564 194.073 28.6785 192.635 26.9077C191.198 25.1265 190.479 22.9858 190.479 20.4858C190.479 18.0275 191.198 15.8973 192.635 14.0952C194.073 12.2931 196.255 11.3921 199.182 11.3921C202.109 11.3921 204.291 12.2931 205.729 14.0952ZM199.166 15.1577C197.864 15.1577 196.859 15.6213 196.151 16.5483C195.453 17.465 195.104 18.7775 195.104 20.4858C195.104 22.1942 195.453 23.5119 196.151 24.439C196.859 25.366 197.864 25.8296 199.166 25.8296C200.468 25.8296 201.468 25.366 202.166 24.439C202.864 23.5119 203.213 22.1942 203.213 20.4858C203.213 18.7775 202.864 17.465 202.166 16.5483C201.468 15.6213 200.468 15.1577 199.166 15.1577ZM223.93 28.9702L221.258 16.564L218.555 28.9702H213.93L209.149 11.939H213.93L216.586 24.1577L219.039 11.939H223.555L226.149 24.2046L228.805 11.939H233.446L228.508 28.9702H223.93ZM250.413 23.9702C250.298 24.9806 249.772 26.0067 248.834 27.0483C247.376 28.7046 245.334 29.5327 242.709 29.5327C240.543 29.5327 238.631 28.8348 236.975 27.439C235.319 26.0431 234.491 23.7723 234.491 20.6265C234.491 17.6785 235.235 15.4181 236.725 13.8452C238.225 12.2723 240.168 11.4858 242.553 11.4858C243.97 11.4858 245.246 11.7515 246.381 12.2827C247.517 12.814 248.454 13.6525 249.194 14.7983C249.86 15.8088 250.293 16.9806 250.491 18.314C250.605 19.0952 250.652 20.2202 250.631 21.689H238.975C239.038 23.3973 239.574 24.5952 240.584 25.2827C241.199 25.7098 241.939 25.9233 242.803 25.9233C243.72 25.9233 244.465 25.6629 245.038 25.1421C245.35 24.8608 245.626 24.4702 245.866 23.9702H250.413ZM246.006 18.7515C245.933 17.5744 245.574 16.6838 244.928 16.0796C244.293 15.465 243.501 15.1577 242.553 15.1577C241.522 15.1577 240.72 15.4806 240.147 16.1265C239.584 16.7723 239.23 17.6473 239.084 18.7515H246.006ZM262.129 16.0483C260.338 16.0483 259.135 16.6317 258.52 17.7983C258.176 18.4546 258.004 19.465 258.004 20.8296V28.9702H253.52V11.939H257.77V14.9077C258.457 13.7723 259.056 12.9963 259.567 12.5796C260.4 11.8817 261.484 11.5327 262.817 11.5327C262.9 11.5327 262.968 11.5379 263.02 11.5483C263.082 11.5483 263.213 11.5535 263.411 11.564V16.1265C263.129 16.0952 262.879 16.0744 262.661 16.064C262.442 16.0535 262.265 16.0483 262.129 16.0483Z" fill="white"/>
</svg>
